<?xml version="1.0" standalone="no"?>
<!DOCTYPE svg PUBLIC "-//W3C//DTD SVG 20010904//EN"
 "http://www.w3.org/TR/2001/REC-SVG-20010904/DTD/svg10.dtd">
<svg version="1.0" xmlns="http://www.w3.org/2000/svg"
 width="1017.000000pt" height="1017.000000pt" viewBox="0 0 1017.000000 1017.000000"
 preserveAspectRatio="xMidYMid meet">
<metadata>
Created by potrace 1.14, written by Peter Selinger 2001-2017
</metadata>
<g transform="translate(0.000000,1017.000000) scale(0.100000,-0.100000)"
fill="#000000" stroke="none">
<path d="M8544 8619 c-11 -3 -44 -33 -74 -65 -30 -32 -125 -128 -210 -214
-135 -136 -220 -226 -421 -445 -26 -27 -58 -69 -72 -92 -29 -45 -116 -150
-206 -248 -92 -99 -206 -228 -246 -275 -21 -25 -74 -83 -118 -130 -44 -47
-103 -117 -132 -155 -70 -92 -199 -232 -247 -268 -21 -16 -48 -30 -61 -32 -44
-7 -100 -33 -111 -51 -6 -11 -17 -19 -23 -20 -28 -2 -32 -5 -36 -21 -3 -14 -7
-11 -17 12 -13 28 -14 29 -17 8 -4 -23 -23 -33 -23 -12 0 5 -4 7 -10 4 -5 -3
-10 -17 -10 -31 0 -28 -15 -32 -25 -6 -6 14 -9 12 -20 -13 -13 -29 -14 -29
-20 -7 -9 26 -20 28 -34 5 -8 -15 -11 -15 -26 -3 -14 12 -17 10 -22 -9 -5 -21
-7 -21 -24 -5 -12 11 -19 13 -19 5 0 -7 -5 -9 -11 -6 -6 4 -17 -1 -24 -11 -13
-18 -15 -18 -37 4 -13 12 -35 33 -50 47 -17 15 -26 30 -22 39 3 9 2 16 -4 16
-6 0 -12 -6 -14 -12 -3 -8 -10 -3 -18 12 -7 14 -16 27 -19 30 -4 3 -12 18 -19
34 -11 24 -15 27 -23 15 -5 -7 -9 -29 -9 -48 0 -28 -2 -32 -14 -21 -8 6 -20
27 -26 46 -15 43 -31 39 -45 -10 -10 -35 -12 -36 -26 -19 -9 10 -21 27 -27 38
-11 19 -11 19 -12 -5 -1 -19 -4 -15 -15 18 -25 81 -25 80 -43 42 -29 -60 -72
-120 -84 -117 -6 1 -15 -9 -19 -23 l-7 -25 -7 23 c-11 35 -28 26 -22 -12 7
-43 -2 -52 -22 -23 -15 20 -27 60 -50 157 -13 52 -22 71 -33 64 -5 -4 -7 -21
-3 -40 8 -45 0 -43 -16 3 -6 20 -21 45 -33 54 -21 17 -21 17 -27 -29 -5 -45
-6 -46 -16 -22 -11 24 -12 24 -12 -12 -1 -43 -16 -57 -26 -25 -8 22 -8 22 -12
-3 -7 -37 -23 -49 -30 -22 -4 18 -8 20 -19 11 -11 -9 -16 -5 -24 16 -5 14 -10
32 -10 38 0 26 -20 -20 -21 -48 0 -26 -2 -24 -12 15 -14 53 -27 53 -43 2 -7
-20 -13 -32 -13 -27 -1 6 -11 21 -22 34 -17 21 -22 22 -30 10 -7 -11 -10 -10
-15 9 -10 36 -21 25 -28 -28 -6 -48 -19 -64 -29 -37 -6 13 -10 -17 -7 -47 3
-27 -17 -11 -25 21 -3 15 -15 39 -25 53 -10 14 -22 39 -26 54 -9 37 -25 13
-17 -26 8 -42 -3 -34 -26 17 -11 25 -23 45 -26 45 -3 0 -4 -19 -2 -42 2 -24 2
-35 0 -25 -3 14 -8 15 -18 7 -9 -8 -15 -6 -21 7 -6 13 -9 4 -13 -32 l-6 -50
-19 39 c-14 30 -20 35 -28 25 -6 -9 -11 -10 -14 -3 -3 6 -11 20 -19 30 -14 18
-14 18 -15 -8 0 -15 -4 -30 -10 -33 -12 -7 -26 25 -35 78 -7 47 -17 47 -34 1
-15 -43 -21 -38 -46 39 -11 31 -24 57 -31 57 -27 0 -64 -46 -65 -80 0 -31 -1
-33 -9 -12 -14 34 -23 27 -46 -35 l-21 -58 -17 58 c-9 31 -19 57 -22 57 -3 0
-3 -21 0 -47 l6 -48 -14 45 -14 45 -1 -45 -2 -45 -14 33 c-21 49 -39 31 -32
-32 4 -46 4 -48 -5 -16 -5 19 -15 46 -21 60 -11 24 -12 23 -15 -20 l-3 -45
-20 25 -21 25 5 -40 c4 -37 4 -38 -6 -13 -14 36 -37 45 -38 15 -1 -17 -3 -15
-8 8 -7 35 -21 37 -38 5 -11 -23 -12 -23 -30 15 l-18 38 -6 -34 -5 -34 -14 27
c-7 15 -17 25 -22 22 -5 -3 -16 2 -23 12 -11 15 -14 16 -15 4 0 -10 -5 -8 -15
7 -25 35 -48 22 -66 -36 l-16 -53 -31 39 -31 38 -1 -62 c0 -66 -4 -74 -26 -45
-11 14 -15 14 -22 4 -7 -11 -11 -7 -16 12 -11 45 -26 28 -27 -31 0 -56 -1 -57
-16 -35 -8 12 -20 22 -26 22 -5 0 -16 8 -23 18 -12 16 -14 16 -27 -2 -13 -18
-14 -18 -32 5 l-17 24 6 -28 c9 -40 -8 -26 -33 28 -24 51 -41 58 -41 18 -1
-27 -1 -27 -15 -9 -8 11 -15 27 -15 35 0 16 -42 41 -69 41 -15 0 -305 289
-371 370 -19 23 -72 80 -118 127 -45 46 -100 110 -121 141 -67 98 -333 384
-409 440 -18 13 -32 30 -32 38 0 8 -37 51 -82 97 -46 45 -135 136 -198 201
-63 65 -146 144 -184 174 -39 31 -101 88 -139 127 -37 38 -65 62 -61 51 7 -17
5 -17 -22 -2 -16 9 -39 23 -52 32 -15 11 -22 13 -22 4 0 -7 -14 -3 -37 11 -25
16 -38 19 -41 11 -2 -7 -15 -12 -28 -12 -15 0 -24 -6 -24 -15 0 -8 -5 -15 -11
-15 -6 0 -9 -7 -5 -15 4 -10 -1 -15 -14 -15 -13 0 -18 -5 -14 -15 4 -10 0 -15
-10 -15 -13 0 -15 -4 -6 -19 13 -26 13 -71 -1 -71 -5 0 -8 -4 -4 -9 3 -5 -1
-15 -8 -23 -8 -9 -12 -45 -12 -113 0 -68 -4 -103 -12 -110 -22 -18 -38 -352
-19 -384 3 -5 2 -11 -4 -13 -7 -2 -7 -15 0 -38 6 -19 7 -36 3 -37 -5 -2 -7
-25 -6 -53 1 -34 -3 -50 -11 -50 -14 0 -13 -39 2 -107 7 -33 6 -43 -5 -47 -9
-4 -11 -11 -6 -18 7 -12 32 -94 33 -110 0 -5 -7 -8 -15 -8 -8 0 -15 -7 -15
-15 0 -8 -4 -15 -10 -15 -14 0 -13 -33 2 -48 9 -9 9 -15 1 -23 -7 -7 -8 -20
-4 -33 5 -11 6 -30 4 -41 -11 -55 -13 -176 -3 -195 7 -14 8 -25 2 -33 -5 -7
-10 -24 -11 -39 -1 -16 -2 -34 -2 -40 -1 -25 19 -123 32 -153 13 -32 30 -132
30 -179 0 -16 6 -38 14 -49 19 -27 19 -37 0 -37 -20 0 -19 -12 5 -43 14 -18
20 -38 19 -65 -2 -21 1 -44 6 -52 10 -17 26 -97 25 -125 -2 -40 -3 -45 -12
-45 -4 0 -3 -10 4 -21 10 -17 10 -23 1 -26 -15 -5 5 -51 32 -73 9 -7 13 -21
10 -31 -3 -9 -1 -20 5 -24 16 -10 12 -45 -6 -45 -17 0 -17 -1 4 -97 6 -27 6
-45 -1 -52 -6 -6 -6 -21 2 -42 7 -21 8 -36 2 -42 -6 -6 -3 -23 9 -45 18 -32
18 -36 3 -47 -11 -8 -13 -14 -5 -19 15 -9 16 -43 1 -48 -6 -2 2 -28 20 -62 36
-67 36 -67 16 -60 -20 8 -18 -6 5 -36 25 -32 25 -50 0 -43 -27 7 -36 -34 -16
-82 19 -44 16 -51 -12 -36 -30 16 -32 14 -22 -20 5 -16 7 -36 4 -43 -3 -8 2
-31 11 -52 10 -23 12 -40 6 -42 -6 -2 -7 -12 -1 -27 14 -37 20 -105 9 -105 -6
0 -8 -30 -5 -75 3 -41 1 -77 -3 -80 -5 -3 -7 -15 -3 -27 4 -16 2 -19 -8 -13
-10 6 -12 4 -7 -7 3 -9 3 -19 -1 -22 -17 -18 -8 -44 26 -73 29 -25 33 -32 18
-33 -12 0 -16 -5 -12 -15 3 -10 -3 -17 -18 -21 -18 -4 -23 -12 -21 -30 3 -29
-29 -84 -50 -84 -11 0 -15 -11 -15 -40 0 -32 -6 -47 -30 -70 -17 -16 -30 -38
-30 -50 0 -11 -6 -20 -13 -20 -9 0 -13 -11 -12 -29 1 -22 -2 -28 -14 -23 -11
4 -9 -4 7 -30 21 -34 22 -36 3 -31 -14 4 -19 0 -18 -14 2 -13 -5 -18 -20 -17
-13 0 -23 -5 -23 -12 0 -7 -13 -27 -29 -45 -16 -17 -27 -38 -24 -45 4 -10 0
-12 -12 -7 -16 6 -17 2 -12 -30 5 -32 2 -40 -19 -54 -25 -16 -26 -24 -8 -67 6
-16 4 -18 -14 -14 -24 7 -30 -10 -10 -30 9 -9 8 -12 -5 -12 -20 0 -22 -11 -5
-28 9 -9 9 -15 0 -24 -9 -9 -8 -16 5 -30 15 -17 15 -18 -2 -18 -18 0 -18 -1 1
-15 10 -8 15 -15 9 -15 -5 0 -3 -5 5 -10 13 -9 13 -10 0 -10 -32 -1 -80 -60
-49 -60 6 0 9 -9 6 -20 -3 -11 -1 -20 5 -20 5 0 8 -6 5 -12 -2 -7 8 -18 22
-25 26 -11 26 -11 -9 -12 l-35 -1 40 -19 c22 -10 49 -26 60 -34 19 -14 19 -16
3 -22 -10 -4 -15 -11 -12 -16 3 -5 0 -10 -5 -10 -34 -4 -88 -31 -73 -36 10 -4
8 -9 -5 -19 -11 -8 -13 -13 -5 -14 6 0 12 -6 12 -14 0 -7 14 -19 32 -27 27
-11 29 -14 12 -20 -17 -7 -17 -8 -1 -8 30 -2 13 -26 -33 -48 -24 -11 -24 -12
13 -12 35 -1 56 -21 21 -21 -12 0 -11 -5 7 -20 23 -18 23 -19 4 -20 -41 -1
-69 -50 -29 -50 17 0 19 -16 3 -26 -8 -4 -7 -9 2 -14 19 -12 19 -38 1 -45 -13
-5 -14 -8 -3 -14 11 -7 10 -13 -8 -32 -27 -29 -27 -37 2 -41 21 -4 21 -5 -6
-18 -15 -7 -27 -19 -27 -27 0 -7 -5 -13 -11 -13 -7 0 -8 -7 -4 -17 4 -10 7
-26 7 -35 0 -11 9 -20 25 -24 16 -4 21 -9 13 -14 -9 -6 -9 -9 0 -15 9 -5 -2
-14 -30 -24 -34 -13 -44 -22 -47 -43 -2 -14 1 -29 7 -33 5 -3 10 -15 10 -26 0
-10 4 -19 10 -19 5 0 7 -7 4 -15 -4 -8 -1 -15 5 -15 7 0 11 -6 9 -13 -4 -17
50 -117 63 -117 5 0 9 -9 9 -19 0 -11 9 -23 20 -26 11 -3 20 -10 20 -14 0 -5
14 -11 31 -15 25 -5 29 -9 20 -20 -11 -13 -7 -15 64 -31 6 -1 41 -3 78 -3 77
-2 81 -16 11 -33 -53 -14 -76 -43 -41 -54 12 -3 17 -9 11 -11 -13 -6 -7 -44 7
-44 5 0 9 -6 9 -14 0 -15 21 -26 52 -26 14 0 18 -5 14 -15 -6 -16 5 -29 69
-83 34 -29 40 -31 48 -16 8 14 12 12 24 -15 9 -18 23 -31 34 -31 9 0 24 -6 31
-12 7 -7 25 -19 41 -27 15 -8 27 -18 27 -23 0 -4 15 -8 34 -8 19 0 36 -5 38
-10 2 -7 13 -7 33 0 17 5 57 17 90 26 33 9 69 20 80 24 44 18 88 29 95 25 5
-3 10 -1 12 5 1 5 13 11 26 13 12 2 28 9 34 15 7 7 22 12 34 12 13 0 25 4 29
9 3 5 28 17 55 26 28 9 50 21 50 27 0 6 9 8 20 5 12 -3 33 1 48 9 15 8 39 14
54 14 15 0 29 4 32 9 10 15 -117 19 -134 4 -9 -6 -33 -11 -55 -10 -47 3 -61
27 -15 27 17 0 40 5 50 10 10 6 38 11 62 12 71 2 131 36 110 61 -7 8 -9 17 -5
21 4 4 1 11 -7 16 -8 5 -11 13 -6 17 5 4 11 2 13 -4 8 -21 25 -15 18 6 -7 24
25 37 54 22 30 -17 52 -13 58 9 3 11 14 20 24 20 23 0 25 16 3 24 -24 9 -36 7
-28 -6 5 -7 2 -9 -8 -6 -8 4 -21 2 -29 -3 -12 -8 -12 -10 1 -19 8 -5 10 -10 4
-10 -6 0 -17 6 -23 14 -7 8 -23 17 -36 20 -14 4 -25 11 -25 18 0 6 -9 3 -20
-7 -18 -17 -19 -16 -26 10 -4 15 -2 31 5 38 6 6 11 14 11 17 0 8 -159 3 -260
-9 -47 -5 -125 -13 -175 -16 -49 -3 -114 -10 -144 -16 -29 -5 -64 -6 -77 -3
-13 3 -24 2 -24 -2 0 -5 -22 -10 -49 -10 -27 -1 -57 -7 -68 -12 -11 -6 -25 -7
-33 -2 -18 11 37 25 155 40 50 7 97 14 105 17 13 4 119 16 335 37 22 2 85 7
140 11 140 10 180 17 180 35 0 11 -10 14 -37 13 -21 -2 -38 1 -38 6 0 5 6 8
13 8 17 -2 97 34 97 43 0 4 -18 10 -39 14 -43 6 -66 26 -32 26 12 0 21 5 21
10 0 6 5 10 12 10 15 0 60 51 53 59 -3 3 -20 5 -38 6 -27 0 -32 4 -33 25 -1
14 -2 30 -3 37 0 7 -24 15 -51 19 -61 8 -72 20 -28 29 97 20 109 26 124 60 7
18 18 36 24 40 5 3 10 17 10 30 0 14 7 26 19 30 11 3 25 13 33 22 11 15 11 16
-4 10 -15 -5 -18 -1 -18 23 0 24 5 31 28 36 15 3 36 9 47 12 11 3 26 5 33 4
24 -5 11 9 -19 20 -21 7 -28 15 -24 25 3 9 1 21 -5 28 -15 18 10 62 37 64 45
3 53 4 53 11 0 8 87 54 104 56 43 4 42 4 26 14 -12 7 -12 12 -2 22 16 16 15
28 -3 28 -19 0 -19 14 0 30 8 7 12 16 9 21 -2 5 11 15 31 23 21 9 39 26 45 42
6 15 13 24 17 20 3 -3 15 1 25 11 10 9 18 13 18 9 0 -4 10 2 21 13 21 20 99
38 116 28 5 -3 35 1 68 10 33 8 76 18 95 22 19 5 58 15 85 24 200 62 224 65
263 32 29 -24 62 -33 62 -17 0 19 43 52 66 52 43 0 84 36 84 74 0 17 4 36 9
42 27 29 50 208 31 244 -5 9 -5 30 -1 46 5 19 4 38 -6 57 -8 15 -11 32 -8 37
3 5 1 11 -5 15 -5 3 -10 14 -10 23 0 9 -9 28 -20 42 -11 14 -20 31 -20 39 0 7
-20 33 -44 58 -25 25 -42 51 -40 58 3 7 -16 26 -46 45 -29 19 -53 42 -56 56
-3 13 -12 28 -20 35 -8 6 -14 20 -14 30 0 11 -5 18 -11 16 -6 -1 -17 13 -23
32 -7 18 -22 42 -34 52 -21 16 -14 38 7 24 12 -7 26 15 15 24 -5 3 -18 23 -29
44 -10 22 -29 47 -42 57 -26 20 -31 42 -8 34 19 -8 19 4 0 36 -19 33 -19 55 0
74 14 13 13 20 -4 67 -11 29 -18 56 -16 60 3 4 1 19 -5 33 -8 22 -7 26 9 26
10 0 19 6 18 13 -2 52 1 53 71 32 18 -6 22 -4 22 14 0 12 6 21 15 21 8 0 15 9
15 20 0 10 8 24 19 29 10 6 21 21 25 34 5 20 11 23 32 19 22 -4 25 -2 21 14
-19 67 -19 84 1 84 11 0 23 7 26 16 4 11 2 15 -8 11 -10 -4 -12 0 -8 15 3 13
11 18 23 15 14 -4 19 0 19 13 0 11 -4 21 -9 25 -5 3 -8 18 -6 33 2 23 7 27 29
24 14 -1 26 2 26 9 0 6 9 24 21 40 15 22 18 33 10 43 -6 7 -8 16 -4 19 10 11
13 58 2 52 -22 -14 -6 36 17 51 19 13 24 23 19 41 -3 13 -1 32 5 43 8 14 7 26
-1 41 -11 21 -10 21 36 15 28 -5 51 -3 59 3 9 8 13 1 15 -27 2 -20 4 -47 4
-59 -1 -26 7 -29 26 -10 11 10 13 9 8 -4 -4 -13 2 -18 23 -21 16 -3 34 0 39 5
5 5 17 5 29 -2 29 -15 42 -14 36 4 -7 19 15 48 31 41 6 -2 12 1 13 7 0 7 4 32
9 57 7 34 13 45 27 45 11 0 21 7 23 15 3 8 9 25 15 37 6 12 8 29 5 37 -3 8 -2
18 4 21 5 4 7 10 4 15 -3 5 2 16 12 25 15 16 17 16 32 -4 l16 -21 18 30 c10
17 23 28 28 25 21 -14 55 45 36 64 -9 9 -4 9 21 0 24 -8 32 -17 32 -36 0 -19
4 -23 19 -18 26 8 34 -9 34 -64 0 -25 3 -56 8 -69 6 -16 4 -41 -6 -76 -9 -29
-13 -60 -9 -69 3 -9 -1 -31 -10 -48 -9 -18 -16 -40 -16 -51 0 -10 -7 -18 -15
-18 -18 0 -20 -17 -2 -23 9 -3 7 -10 -6 -25 -11 -11 -16 -25 -13 -31 3 -5 -1
-17 -11 -26 -15 -16 -15 -19 -2 -29 9 -6 16 -26 16 -46 0 -45 6 -64 23 -85 12
-15 11 -19 -9 -34 -20 -15 -22 -23 -17 -84 2 -37 9 -73 15 -80 5 -7 8 -22 5
-34 -3 -11 -1 -24 5 -27 6 -4 11 -18 11 -32 0 -13 5 -24 10 -24 6 0 10 -9 10
-19 0 -11 4 -22 9 -25 5 -3 14 -27 20 -52 11 -43 14 -46 39 -41 38 8 52 -26
52 -127 0 -105 7 -116 55 -93 45 22 45 22 45 -9 0 -21 -4 -24 -20 -19 -12 4
-20 2 -20 -5 0 -6 4 -9 8 -6 17 10 32 -38 23 -74 -7 -33 -3 -54 21 -106 6 -12
7 -30 4 -40 -4 -13 3 -26 24 -42 16 -13 27 -29 24 -36 -3 -7 2 -25 10 -41 9
-16 12 -40 9 -57 -3 -17 -1 -28 6 -28 6 0 11 -8 11 -17 0 -9 16 -34 36 -54 19
-20 38 -49 41 -65 8 -45 4 -105 -7 -119 -6 -7 -7 -21 -4 -31 9 -24 54 -74 67
-74 19 0 77 -51 77 -67 0 -31 76 -85 107 -77 15 4 22 0 26 -15 3 -12 9 -21 14
-20 4 1 15 0 23 -3 8 -4 23 -9 33 -12 9 -3 20 -14 23 -23 17 -49 36 -83 49
-83 8 0 15 -4 15 -8 0 -16 65 -56 88 -54 37 3 62 -16 84 -64 19 -45 80 -114
99 -114 6 0 24 -11 41 -25 41 -35 84 -33 126 6 21 19 31 37 27 46 -3 9 0 22 6
29 14 17 46 18 51 3 2 -6 20 -12 39 -14 20 -1 63 -16 97 -32 34 -17 81 -34
104 -38 24 -4 52 -14 63 -21 11 -8 28 -14 38 -14 20 0 117 -60 138 -86 9 -11
9 -23 2 -48 -13 -42 -1 -54 78 -82 30 -10 67 -29 82 -41 16 -13 39 -26 53 -29
13 -3 24 -12 24 -19 0 -7 12 -15 28 -18 37 -9 61 -27 45 -34 -22 -8 -14 -21
28 -46 l41 -25 -28 -9 -27 -9 37 -18 c26 -12 38 -25 42 -46 4 -16 14 -37 25
-48 10 -11 15 -22 12 -26 -3 -3 -2 -13 3 -23 4 -10 9 -22 9 -28 5 -31 19 -45
46 -45 16 0 29 -4 29 -9 0 -16 -17 -22 -42 -13 -25 10 -48 6 -48 -8 0 -5 20
-16 45 -26 25 -9 45 -23 45 -31 0 -8 -4 -12 -9 -9 -13 8 -41 -4 -41 -18 0 -6
18 -19 40 -30 36 -18 57 -42 45 -54 -3 -3 -16 5 -29 17 -18 17 -25 19 -28 9
-4 -10 -11 -9 -35 4 -27 16 -32 16 -43 3 -7 -8 -10 -16 -6 -16 3 -1 10 -2 15
-3 5 0 13 -4 17 -9 4 -4 16 -7 26 -7 27 0 22 -27 -7 -34 -31 -8 -33 -26 -2
-26 12 0 34 -6 49 -14 15 -8 28 -10 30 -5 6 18 149 9 172 -11 7 -5 23 -6 36
-3 15 4 27 1 34 -9 6 -8 14 -16 19 -16 4 -1 9 -3 12 -3 3 -1 10 -3 15 -4 6 -1
17 -3 25 -4 8 0 15 -5 15 -9 0 -8 -66 -4 -303 19 -121 12 -128 11 -141 -6 -11
-15 -17 -17 -27 -8 -21 17 -118 21 -124 5 -8 -22 -6 -25 16 -19 12 3 32 -1 46
-10 13 -9 26 -13 30 -10 3 4 11 0 17 -8 7 -8 52 -20 111 -29 55 -8 114 -18
130 -20 134 -23 165 -30 165 -38 0 -5 4 -6 10 -3 24 15 350 -65 350 -86 0 -15
-31 -23 -39 -11 -4 6 -26 14 -49 18 -23 4 -42 11 -42 16 0 5 -4 7 -8 4 -5 -3
-62 6 -128 20 -65 13 -144 27 -174 29 -30 3 -71 10 -90 15 -19 5 -57 11 -85
14 -27 3 -73 10 -101 16 -28 6 -55 10 -60 9 -5 -2 -35 1 -66 5 -45 6 -62 4
-80 -8 l-22 -16 28 0 c21 0 27 -4 24 -18 -3 -12 -13 -17 -41 -17 -35 0 -38 -2
-32 -25 7 -28 25 -51 25 -32 0 7 7 12 15 12 9 0 15 -9 15 -23 0 -54 5 -67 22
-67 12 0 15 5 11 17 -6 14 0 13 33 -6 21 -13 56 -24 77 -25 20 0 37 -4 37 -8
0 -5 9 -8 20 -8 11 0 20 5 20 10 0 17 26 11 46 -11 12 -14 25 -18 41 -14 13 3
23 1 23 -5 0 -5 9 -10 19 -10 11 0 26 -6 34 -14 9 -9 24 -12 37 -9 16 4 21 3
16 -5 -4 -7 -20 -12 -36 -12 -17 0 -33 -7 -39 -17 -8 -14 -12 -15 -25 -4 -9 7
-16 9 -16 3 0 -5 7 -12 15 -16 8 -3 15 -12 15 -19 0 -8 25 -22 60 -33 33 -10
60 -22 60 -26 0 -4 7 -5 15 -2 8 4 15 2 15 -3 0 -17 96 -62 119 -56 14 3 26 0
34 -11 7 -9 39 -25 72 -37 33 -11 68 -28 78 -37 13 -12 20 -13 29 -4 16 16 45
15 52 0 3 -9 9 -7 20 7 34 45 45 51 86 48 25 -2 40 1 40 8 0 19 50 59 80 66
26 5 51 43 29 43 -5 0 -9 4 -9 9 0 4 12 6 26 3 19 -3 32 3 53 25 15 17 33 32
41 35 10 3 10 9 1 26 -6 12 -16 22 -21 22 -6 0 -10 6 -10 14 0 12 7 12 47 0
43 -13 48 -13 65 6 10 11 26 20 36 20 9 0 42 23 72 50 30 28 67 58 83 67 27
17 36 33 17 33 -27 0 -5 17 33 26 32 7 41 13 39 27 -2 10 7 21 23 29 14 6 25
17 25 23 0 7 7 18 15 25 9 7 14 19 11 26 -3 7 2 18 9 24 8 7 13 15 10 19 -2 4
12 20 32 37 59 47 74 64 68 74 -4 6 -1 10 5 10 7 0 10 6 7 13 -2 7 8 25 24 41
16 16 26 33 23 38 -3 5 7 21 23 36 27 26 27 27 6 30 -13 2 -20 9 -17 16 3 7
-8 18 -23 26 l-28 13 43 19 c23 10 40 22 38 27 -3 4 -23 16 -45 27 -29 13 -39
23 -35 34 4 8 6 23 6 33 0 10 6 21 14 24 7 3 12 9 9 14 -3 4 6 16 20 25 20 13
23 20 14 30 -9 11 -6 16 14 23 33 13 41 28 21 39 -15 9 -15 10 4 16 28 9 28
23 0 32 l-21 6 23 18 c16 12 19 19 11 24 -15 10 4 36 25 36 8 0 14 5 14 10 0
6 -5 10 -11 10 -8 0 -8 4 0 14 9 11 5 15 -21 20 -25 5 -29 9 -19 16 12 7 13
11 1 24 -7 9 -10 19 -7 23 4 3 1 13 -5 21 -10 11 -8 17 7 28 15 11 16 14 3 14
-20 0 -19 50 1 73 11 14 11 18 -3 23 -13 5 -12 9 7 25 l22 18 -24 1 c-19 0
-21 3 -12 14 9 10 9 16 1 21 -8 5 -4 15 11 31 l22 24 -27 0 c-17 0 -25 4 -21
11 4 6 -2 13 -14 16 -26 7 -27 17 -2 42 34 34 20 84 -28 103 l-25 9 32 21 c37
23 38 26 16 43 -9 6 -17 26 -18 43 -1 34 -3 35 -71 47 -22 4 -33 10 -25 13 8
3 26 13 38 23 l24 18 -27 7 c-23 6 -25 8 -11 16 20 11 21 28 2 28 -7 0 -19 7
-26 15 -7 8 -21 15 -31 15 -23 0 -24 8 -2 32 15 17 15 18 -5 18 -15 0 -20 5
-16 15 4 9 0 15 -9 15 -11 0 -15 9 -13 34 3 31 0 35 -23 38 -23 3 -26 7 -23
36 2 21 -1 32 -10 32 -8 0 -7 4 5 11 26 15 20 27 -15 31 -26 2 -34 8 -36 26
-2 13 2 30 10 39 11 14 11 16 -3 11 -24 -9 -31 45 -10 68 15 15 14 16 -11 12
-15 -3 -29 0 -31 6 -3 7 -9 7 -20 -3 -15 -12 -18 -10 -27 15 -20 56 -33 73
-64 84 -23 8 -27 13 -17 19 8 5 9 11 3 15 -14 9 -3 46 14 46 8 0 14 7 14 15 0
9 7 27 16 40 15 23 15 24 -4 20 -34 -6 -39 41 -7 70 14 13 25 27 25 31 0 4 8
13 17 20 23 16 10 29 -30 29 -29 0 -32 3 -29 28 1 14 -4 37 -13 50 -14 22 -14
26 5 50 11 14 20 30 20 36 0 6 5 11 10 11 6 0 10 5 10 12 0 6 8 28 17 49 12
28 22 38 37 36 12 -1 21 4 21 13 2 31 17 51 35 45 25 -8 44 19 31 44 -8 14 -8
22 0 26 6 4 8 14 5 21 -3 8 10 38 29 65 19 28 33 54 30 58 -2 4 5 36 17 72 11
35 20 84 19 108 -1 38 18 104 60 206 4 11 14 38 21 60 7 22 18 51 25 64 6 13
9 29 6 36 -2 8 1 24 8 37 7 13 14 32 16 42 2 10 13 40 24 65 19 42 25 69 33
143 1 15 8 33 14 41 14 16 12 67 -2 67 -5 0 -2 6 8 13 9 7 16 17 15 22 -2 6 3
21 11 35 7 14 15 50 17 80 2 30 5 84 8 120 2 36 7 104 10 151 2 48 9 98 14
111 9 25 7 515 -3 573 -7 41 -15 139 -21 270 -3 60 -10 114 -15 119 -6 6 -10
18 -10 27 0 9 -6 39 -14 65 -37 126 -65 255 -64 294 0 14 -4 65 -18 204 -6 63
-68 215 -95 232 -18 11 -42 12 -65 3z m-286 -1431 c19 -19 14 -29 -8 -16 -20
13 -27 28 -12 28 4 0 13 -5 20 -12z m-6101 -4 c-3 -3 -12 -4 -19 -1 -8 3 -5 6
6 6 11 1 17 -2 13 -5z m6153 -4 c12 -8 11 -10 -7 -10 -13 0 -23 5 -23 10 0 13
11 13 30 0z m-6310 -54 c0 -3 -4 -8 -10 -11 -5 -3 -10 -1 -10 4 0 6 5 11 10
11 6 0 10 -2 10 -4z m291 -265 c35 -11 77 -46 68 -56 -10 -9 -49 8 -49 21 0 8
-7 14 -15 14 -8 0 -15 -4 -15 -10 0 -5 -10 -8 -22 -6 -13 3 -28 5 -34 5 -14 1
-27 47 -19 61 4 6 15 4 28 -4 12 -8 38 -19 58 -25z m159 -31 c0 -13 -11 -13
-30 0 -12 8 -11 10 8 10 12 0 22 -4 22 -10z m5828 -65 c-3 -3 -9 2 -12 12 -6
14 -5 15 5 6 7 -7 10 -15 7 -18z m-2351 -117 c-3 -8 -6 -5 -6 6 -1 11 2 17 5
13 3 -3 4 -12 1 -19z m1803 -182 c0 -2 -9 -6 -20 -9 -11 -3 -20 -1 -20 4 0 5
9 9 20 9 11 0 20 -2 20 -4z m422 -31 c0 -5 -5 -11 -11 -13 -6 -2 -11 4 -11 13
0 9 5 15 11 13 6 -2 11 -8 11 -13z m-6144 -184 c3 -8 -1 -12 -9 -9 -7 2 -15
10 -17 17 -3 8 1 12 9 9 7 -2 15 -10 17 -17z m142 -11 c0 -5 -4 -10 -9 -10 -6
0 -13 5 -16 10 -3 6 1 10 9 10 9 0 16 -4 16 -10z m6094 -116 c9 -3 16 -10 16
-15 0 -15 -37 -10 -50 6 -10 12 -10 15 3 15 8 0 22 -3 31 -6z m116 -4 c0 -5
-7 -10 -15 -10 -8 0 -15 5 -15 10 0 6 7 10 15 10 8 0 15 -4 15 -10z m-3776
-27 c9 -22 -24 -50 -35 -31 -8 13 7 48 20 48 5 0 12 -8 15 -17z m-106 -83 c-2
-7 -10 1 -17 16 -12 27 -11 28 4 12 10 -9 16 -21 13 -28z m-80 -42 c7 1 12 -3
12 -9 0 -6 -8 -9 -17 -7 -12 2 -19 14 -20 33 -2 28 -1 29 6 5 4 -14 13 -24 19
-22z m74 -13 c-1 -11 -3 -32 -4 -47 -2 -40 -18 -34 -18 6 0 19 -4 38 -10 41
-18 11 -10 26 13 23 15 -2 21 -9 19 -23z m-49 -105 c3 -13 0 -20 -9 -20 -8 0
-14 10 -14 26 0 28 15 25 23 -6z m-2582 -72 c23 4 31 -24 12 -40 -13 -10 -17
-10 -20 0 -3 6 -11 12 -19 12 -9 0 -14 10 -14 28 1 23 2 25 13 12 7 -9 19 -14
28 -12z m6528 -545 c22 -6 23 -7 7 -13 -24 -8 -76 0 -76 11 0 11 35 12 69 2z
m-16 -29 c8 -9 -11 -44 -23 -44 -6 0 -10 8 -10 18 0 27 18 41 33 26z m-6463
-54 c14 -16 30 -30 37 -30 12 0 30 -67 20 -76 -3 -3 -24 -8 -46 -11 -33 -5
-41 -3 -41 11 0 9 -8 24 -18 34 -25 25 -33 60 -19 83 17 27 39 23 67 -11z
m6510 10 c0 -5 -2 -10 -4 -10 -3 0 -8 5 -11 10 -3 6 -1 10 4 10 6 0 11 -4 11
-10z m-105 -20 c-3 -5 -10 -10 -16 -10 -5 0 -9 5 -9 10 0 6 7 10 16 10 8 0 12
-4 9 -10z m-6405 -179 c0 -5 14 -12 30 -16 17 -4 30 -11 30 -16 0 -5 -13 -9
-30 -9 -20 0 -30 5 -30 15 0 8 -4 15 -10 15 -5 0 -10 5 -10 10 0 6 5 10 10 10
6 0 10 -4 10 -9z m-80 -517 c0 -2 -7 -4 -15 -4 -8 0 -15 4 -15 10 0 5 7 7 15
4 8 -4 15 -8 15 -10z m1750 -179 c5 3 10 2 10 -4 0 -6 11 -6 32 0 17 5 33 7
35 5 7 -7 -32 -66 -44 -66 -6 0 -18 8 -25 18 -7 11 -23 24 -36 31 -12 7 -20
16 -16 22 4 6 11 6 19 -1 8 -7 19 -9 25 -5z m2926 -153 c-10 -10 -29 15 -21
28 6 9 10 8 17 -4 6 -10 7 -20 4 -24z m824 -1261 c0 -5 -9 -7 -20 -4 -11 3
-20 7 -20 9 0 2 9 4 20 4 11 0 20 -4 20 -9z m-4695 -551 c-3 -5 -13 -10 -21
-10 -8 0 -14 5 -14 10 0 6 9 10 21 10 11 0 17 -4 14 -10z m4954 3 c22 -6 23
-7 7 -13 -25 -8 -77 0 -70 11 6 11 29 11 63 2z m139 -17 c10 -11 -2 -12 -55
-8 -29 2 -53 8 -53 13 0 9 98 4 108 -5z m-5928 -10 c0 -11 -19 -15 -25 -6 -3
5 1 10 9 10 9 0 16 -2 16 -4z m-55 -15 c-14 -12 -65 -23 -65 -13 0 16 13 22
44 22 17 0 26 -4 21 -9z m6109 -1 c-7 -7 -19 -7 -35 -1 -23 9 -22 10 11 10 23
1 31 -2 24 -9z m96 -14 c0 -3 -59 0 -70 4 -3 1 4 5 15 9 17 7 55 -2 55 -13z
m-1000 -70 c0 -11 -19 -15 -25 -6 -3 5 1 10 9 10 9 0 16 -2 16 -4z m886 -100
c18 -14 17 -15 -13 -14 -32 1 -40 8 -26 21 9 10 17 9 39 -7z m89 -15 c8 -14
-12 -23 -36 -16 -17 6 -19 9 -8 16 18 11 36 11 44 0z m-6138 -47 c-3 -3 -12
-4 -19 -1 -8 3 -5 6 6 6 11 1 17 -2 13 -5z"/>
<path d="M8310 4930 c0 -5 5 -10 11 -10 5 0 7 5 4 10 -3 6 -8 10 -11 10 -2 0
-4 -4 -4 -10z"/>
<path d="M4380 2750 c-26 -4 -34 -9 -32 -23 3 -19 62 -110 74 -115 4 -2 8 -10
8 -17 0 -8 8 -20 19 -27 10 -7 19 -17 19 -21 2 -14 59 -57 76 -57 9 0 16 -8
16 -20 0 -17 9 -22 36 -19 3 0 12 -8 20 -18 8 -11 13 -13 14 -5 0 18 37 15 44
-4 3 -8 1 -25 -5 -36 -10 -18 -9 -20 5 -15 12 5 16 0 16 -23 0 -16 5 -32 10
-35 7 -5 8 -11 1 -19 -6 -7 -7 -36 -4 -68 5 -50 9 -57 29 -60 20 -3 21 -5 9
-22 -13 -17 -14 -17 -37 3 -12 12 -32 24 -44 27 -22 6 -84 -20 -84 -34 0 -4
-13 -13 -29 -20 -16 -7 -28 -20 -27 -28 0 -9 -8 -21 -19 -28 -31 -18 -47 -35
-41 -45 4 -5 1 -11 -5 -13 -6 -2 -8 -14 -3 -32 l7 -28 17 26 c9 15 20 23 23
19 4 -3 7 -1 7 5 0 16 27 15 33 0 3 -10 8 -10 21 1 13 11 20 11 28 3 7 -7 10
-13 7 -15 -2 -2 -17 -13 -33 -25 -16 -13 -34 -33 -40 -45 -7 -12 -23 -24 -36
-25 -23 -4 -79 -45 -90 -67 -3 -5 -11 -9 -17 -7 -7 2 -13 -1 -13 -7 0 -5 -13
-23 -30 -41 -25 -27 -34 -31 -60 -25 -25 6 -31 3 -42 -19 -8 -19 -17 -25 -30
-20 -10 3 -18 1 -18 -5 0 -6 -6 -11 -12 -11 -20 0 -81 -19 -98 -30 -12 -8 -13
-11 -1 -19 10 -6 5 -13 -19 -25 -40 -20 -40 -20 -40 -1 0 9 -9 15 -25 15 -15
0 -25 -6 -25 -14 0 -24 -39 -30 -61 -10 -18 16 -21 16 -36 2 -12 -13 -21 -14
-38 -6 -17 8 -29 6 -49 -7 -14 -10 -37 -15 -51 -13 -14 3 -26 0 -29 -8 -3 -8
-15 -14 -26 -14 -11 0 -20 -5 -20 -11 0 -5 -4 -8 -9 -5 -5 3 -7 14 -4 24 5 21
-28 23 -65 3 -12 -7 -31 -9 -41 -6 -13 4 -20 -1 -24 -16 -4 -14 -10 -18 -19
-13 -21 13 -69 4 -91 -17 -12 -10 -27 -19 -36 -19 -14 0 -131 -117 -131 -131
0 -4 -11 -21 -25 -37 -40 -48 -57 -85 -42 -95 9 -6 8 -7 -3 -6 -29 3 -40 -1
-40 -16 0 -8 -16 -30 -35 -49 l-35 -35 34 -7 c19 -3 37 -12 40 -20 3 -8 12
-14 19 -14 18 0 38 45 30 66 -5 13 -2 15 17 9 21 -7 22 -5 17 23 -6 29 -5 29
18 18 30 -13 32 -39 5 -66 -11 -11 -20 -26 -20 -34 0 -8 -6 -17 -12 -19 -10
-4 -10 -7 0 -15 10 -7 9 -12 -4 -23 -9 -8 -20 -13 -23 -11 -3 2 -7 -3 -9 -11
-2 -7 4 -14 13 -14 8 0 15 4 15 9 0 4 5 8 11 8 5 0 9 -10 7 -22 -2 -16 3 -23
17 -26 17 -3 18 -1 5 8 -11 9 -12 13 -2 17 6 2 12 11 12 19 0 9 4 13 10 9 13
-8 61 5 55 15 -3 5 -1 11 5 15 5 3 10 15 10 27 0 12 8 22 22 26 21 5 21 6 2
13 -17 7 -17 8 -1 8 14 1 16 6 11 27 -5 18 -3 25 3 21 6 -4 14 5 18 21 3 15
16 37 28 50 12 13 22 27 22 30 0 4 5 7 11 7 6 0 19 7 28 14 16 13 17 12 10
-14 -4 -15 -20 -53 -35 -84 -16 -31 -29 -66 -29 -78 0 -15 -6 -23 -16 -23 -12
0 -15 -6 -11 -21 3 -12 0 -22 -9 -26 -7 -3 -19 -24 -25 -46 -6 -23 -18 -46
-26 -52 -8 -6 -17 -25 -19 -42 -3 -25 1 -32 19 -37 37 -10 40 -7 34 30 -5 32
-4 36 13 31 13 -3 20 0 20 8 0 8 10 21 21 29 12 8 19 21 16 29 -5 14 25 47 43
47 12 0 12 11 0 30 -7 11 -4 19 11 31 18 13 20 19 10 37 -8 15 -8 22 -1 22 6
0 16 11 22 26 l12 25 13 -23 c8 -14 12 -17 13 -8 0 8 7 28 16 45 10 19 11 31
5 33 -19 6 -12 22 14 32 14 5 27 15 29 22 2 7 7 22 12 33 7 19 7 19 11 1 3
-10 0 -23 -6 -29 -6 -6 -11 -22 -11 -37 0 -14 -9 -38 -20 -55 -11 -16 -20 -36
-20 -44 0 -8 -6 -22 -13 -30 -15 -17 -37 -107 -37 -147 0 -14 -7 -27 -15 -30
-8 -4 -15 -13 -15 -21 0 -8 -7 -21 -15 -30 -8 -8 -12 -19 -9 -25 4 -5 2 -20
-4 -31 -23 -48 -35 -107 -22 -105 3 1 19 -5 35 -12 17 -7 34 -14 38 -14 4 -1
11 -6 15 -13 9 -15 140 -103 170 -114 12 -5 22 -13 22 -18 0 -5 11 -12 25 -15
17 -4 25 -13 25 -27 0 -15 5 -19 15 -15 10 3 19 -1 23 -13 8 -21 75 -81 91
-81 6 0 11 -5 11 -10 0 -6 12 -15 27 -21 15 -5 32 -18 39 -28 7 -10 28 -24 46
-31 18 -7 40 -19 48 -25 23 -19 115 -43 210 -54 47 -6 100 -15 119 -21 38 -11
245 -30 363 -34 40 -1 79 -6 87 -10 8 -5 16 -3 21 5 6 9 12 10 22 2 7 -6 48
-9 93 -7 279 10 357 14 415 24 80 14 157 37 190 58 14 9 34 18 45 19 71 12
242 74 255 94 3 4 27 17 54 28 27 12 50 29 53 40 3 11 17 21 32 24 32 7 105
72 96 87 -3 5 3 10 14 10 11 0 23 6 28 12 11 18 10 52 -2 61 -6 6 -6 10 3 14
6 2 12 11 12 18 0 20 21 30 31 14 4 -8 20 -15 34 -16 25 -2 34 10 15 22 -8 5
-7 11 1 21 18 22 -18 30 -41 9 -27 -24 -35 -14 -10 12 10 12 16 23 13 27 -3 3
0 13 7 22 11 13 11 17 0 24 -7 4 -10 15 -7 23 4 11 -6 18 -38 26 -49 12 -76
37 -31 29 18 -4 26 -1 26 8 0 8 5 14 10 14 6 0 10 5 10 10 0 14 -27 12 -34 -2
-3 -7 -4 -1 -1 13 3 17 -1 31 -10 39 -19 16 -19 30 0 30 8 0 15 7 15 16 0 12
-6 15 -24 10 -20 -5 -28 0 -45 28 -12 18 -21 43 -21 55 0 11 -4 21 -10 21 -5
0 -10 5 -10 10 0 6 10 10 22 10 12 0 18 3 15 7 -4 3 -2 12 4 19 8 10 7 18 -5
29 -9 9 -16 23 -16 31 0 8 -4 13 -9 10 -4 -3 -14 13 -21 35 -9 26 -18 38 -27
35 -7 -3 -12 -1 -10 5 1 6 -7 16 -18 22 -11 7 -22 13 -25 15 -2 2 2 7 10 12
13 8 12 10 -2 10 -13 0 -18 8 -18 30 0 17 -5 30 -11 30 -6 0 -9 12 -7 28 2 22
-1 28 -21 30 -13 2 -21 -1 -17 -6 8 -13 -20 -36 -34 -27 -5 3 -10 13 -10 21 0
8 -10 14 -22 14 -16 0 -19 3 -10 8 19 13 3 45 -19 39 -13 -3 -31 7 -54 29 -46
44 -61 43 -76 -6 -12 -41 -32 -58 -22 -19 4 14 0 25 -11 31 -9 5 -16 18 -16
28 0 21 -26 28 -32 9 -3 -9 -10 -9 -26 0 -20 11 -21 10 -12 -14 5 -14 6 -25 1
-25 -5 0 -11 7 -15 15 -3 8 -12 15 -20 15 -9 0 -18 11 -22 25 -4 17 -13 25
-29 25 -12 0 -28 6 -34 14 -7 8 -22 17 -34 20 -12 3 -26 15 -32 28 -5 13 -17
23 -25 23 -8 0 -21 14 -30 30 -8 17 -16 32 -17 34 -2 2 -17 5 -33 6 -29 2 -30
0 -25 -25 4 -19 2 -29 -9 -33 -21 -8 -30 11 -14 30 11 15 11 16 -4 10 -19 -7
-37 11 -21 22 26 16 33 50 19 83 -23 54 -29 72 -27 86 2 10 -2 11 -18 2 -17
-8 -21 -8 -21 3 0 23 12 28 35 13 18 -12 24 -12 40 0 18 14 19 17 4 42 -12 22
-21 26 -47 24 -27 -3 -32 0 -32 17 0 12 -7 21 -16 21 -8 0 -13 -4 -10 -9 3 -5
-1 -14 -9 -21 -11 -9 -18 -9 -30 3 -17 17 -20 37 -6 37 5 0 9 6 8 13 -1 45 5
67 18 67 8 0 15 7 15 15 0 8 4 15 9 15 6 0 6 13 -1 32 -9 26 -8 33 5 43 10 7
17 18 17 26 0 17 55 43 70 34 5 -3 10 0 10 7 1 7 24 24 53 38 29 14 55 29 59
35 4 5 11 10 15 10 4 0 24 18 43 39 72 80 80 86 99 86 16 0 22 9 27 40 4 24
15 47 27 55 19 13 19 15 3 21 -9 4 -28 2 -42 -5 -14 -6 -36 -11 -49 -11 -13 0
-30 -6 -37 -14 -8 -7 -27 -20 -43 -28 -28 -14 -31 -14 -54 8 -26 25 -72 27
-93 6 -7 -7 -20 -12 -30 -12 -22 0 -98 -39 -98 -51 0 -5 -9 -9 -20 -9 -11 0
-20 -7 -20 -15 0 -9 -11 -20 -25 -25 -14 -5 -25 -14 -25 -20 0 -5 -11 -10 -25
-10 -18 0 -25 -5 -25 -19 0 -10 -7 -21 -15 -25 -10 -3 -15 1 -15 13 0 32 -50
42 -76 16 -9 -8 -26 -15 -40 -15 -13 0 -24 -5 -24 -12 0 -8 -6 -7 -16 4 -9 9
-16 28 -16 43 0 15 -13 47 -29 70 -34 50 -88 76 -169 81 -48 3 -89 15 -150 43
-8 4 -31 4 -50 1z m357 -637 c-9 -9 -20 -13 -24 -9 -4 4 -1 11 7 16 25 16 35
11 17 -7z m-96 -66 c-13 -13 -15 1 -4 30 7 17 8 17 11 -1 2 -10 -1 -23 -7 -29z
m-80 -10 c-1 -12 -15 -9 -19 4 -3 6 1 10 8 8 6 -3 11 -8 11 -12z m637 -137
c-2 -8 -11 -16 -20 -18 -14 -3 -17 3 -15 26 2 25 4 28 20 18 9 -6 16 -18 15
-26z m-818 -160 c0 -5 -4 -10 -10 -10 -5 0 -10 5 -10 10 0 6 5 10 10 10 6 0
10 -4 10 -10z m-102 -29 c3 -8 -1 -12 -9 -9 -7 2 -15 10 -17 17 -3 8 1 12 9 9
7 -2 15 -10 17 -17z m-103 -51 c-3 -5 -10 -10 -16 -10 -5 0 -9 5 -9 10 0 6 7
10 16 10 8 0 12 -4 9 -10z m-96 -91 c-16 -10 -23 -4 -14 10 3 6 11 8 17 5 6
-4 5 -9 -3 -15z m-475 -30 c-22 -24 -38 -14 -17 11 9 10 21 17 25 13 5 -3 2
-13 -8 -24z m2143 9 c-3 -8 -6 -5 -6 6 -1 11 2 17 5 13 3 -3 4 -12 1 -19z
m-577 -203 c0 -8 -6 -15 -14 -15 -17 0 -28 14 -19 24 12 12 33 6 33 -9z m70 5
c0 -5 8 -6 17 -3 13 5 15 2 10 -11 -5 -13 -1 -19 13 -23 15 -4 19 -11 15 -24
-4 -11 -2 -19 4 -19 6 0 11 -5 11 -11 0 -7 8 -18 18 -25 14 -10 15 -15 5 -25
-15 -15 -17 -29 -4 -29 5 0 13 9 16 20 3 11 13 20 21 20 18 0 18 -14 -1 -30
-13 -11 -13 -15 -3 -22 10 -7 10 -11 1 -14 -9 -4 -7 -11 6 -25 24 -26 70 -22
85 6 6 11 12 22 14 25 4 5 22 -22 22 -33 0 -5 -4 -6 -9 -2 -6 3 -15 -4 -21
-15 -8 -14 -17 -19 -30 -15 -24 8 -34 -9 -20 -34 7 -13 7 -22 0 -26 -5 -3 -10
-18 -10 -32 0 -19 -4 -24 -16 -19 -11 4 -18 -1 -21 -14 -3 -11 -9 -20 -14 -20
-5 0 -9 -10 -9 -21 0 -17 3 -19 14 -10 11 9 15 7 19 -11 7 -24 -13 -44 -25
-25 -5 9 -10 9 -20 -1 -6 -6 -20 -12 -30 -12 -10 0 -18 -4 -18 -9 0 -5 9 -7
20 -4 17 5 20 0 20 -28 l-1 -34 -18 22 c-10 12 -21 19 -25 16 -3 -4 -6 1 -6
10 0 9 -9 21 -21 27 -13 7 -19 19 -17 33 2 14 -3 23 -14 25 -13 3 -18 -3 -18
-21 0 -19 -7 -27 -27 -32 -15 -3 -22 -9 -17 -13 6 -4 13 -16 16 -27 3 -11 9
-28 13 -37 5 -13 2 -18 -9 -18 -10 0 -16 9 -16 23 0 21 -4 23 -48 23 -47 -1
-48 -2 -30 -20 21 -23 14 -39 -13 -31 -11 4 -19 2 -19 -4 0 -6 -7 -11 -15 -11
-8 0 -15 7 -15 16 0 9 -8 18 -19 21 -13 3 -17 11 -14 24 7 25 19 24 26 -1 5
-19 27 -29 27 -12 -1 18 -41 54 -55 48 -21 -8 -28 14 -16 47 9 23 7 31 -10 48
-11 11 -24 17 -29 14 -5 -3 -14 4 -21 17 l-12 22 -18 -22 c-20 -26 -26 -20
-35 35 -5 35 -10 42 -35 47 -18 3 -29 12 -29 22 0 13 -3 14 -15 4 -8 -7 -15
-22 -15 -33 0 -11 -3 -17 -7 -14 -3 4 -12 2 -20 -4 -10 -9 -18 -8 -31 4 -9 8
-32 18 -49 22 -33 7 -47 35 -18 35 28 0 15 17 -26 36 l-42 18 32 8 c24 7 31
14 31 33 0 29 7 30 34 10 30 -22 66 -19 66 5 0 14 7 20 23 20 13 0 27 3 31 8
4 4 18 7 29 7 15 0 22 6 22 20 0 32 12 42 45 37 20 -3 30 0 30 9 0 9 3 10 11
2 12 -12 -4 -53 -20 -53 -5 0 -11 -11 -14 -25 -3 -20 -1 -25 12 -23 9 2 16 10
16 18 0 20 20 40 39 40 9 0 18 13 22 35 4 21 12 35 20 35 11 0 12 -4 4 -19
-14 -27 -13 -28 13 -26 12 1 29 -1 38 -6 10 -5 21 -3 29 4 8 7 10 7 7 1 -10
-17 34 -51 76 -58 33 -6 38 -4 48 18 10 21 17 24 43 20 27 -5 29 -4 15 8 -8 7
-21 22 -27 33 -11 20 -11 19 -12 -2 0 -15 -5 -21 -14 -17 -8 3 -17 1 -21 -5
-8 -14 -45 -14 -45 -1 0 6 8 10 17 10 20 0 53 28 53 47 0 7 7 13 15 13 8 0 15
-4 15 -10z m-600 -10 c0 -5 -5 -10 -11 -10 -5 0 -7 5 -4 10 3 6 8 10 11 10 2
0 4 -4 4 -10z m480 0 c0 -5 -4 -10 -10 -10 -5 0 -10 5 -10 10 0 6 5 10 10 10
6 0 10 -4 10 -10z m-612 -44 c4 -31 26 -44 46 -27 7 6 16 8 19 4 12 -11 8 -23
-8 -23 -8 0 -15 -4 -15 -9 0 -5 7 -11 15 -15 24 -9 18 -28 -6 -21 -18 6 -20 3
-17 -21 2 -16 -2 -28 -10 -30 -7 -1 -8 0 -2 3 8 3 8 9 0 18 -6 7 -10 17 -9 21
5 28 -2 43 -17 37 -14 -5 -15 0 -9 35 6 35 4 42 -10 42 -9 0 -13 5 -10 11 11
17 30 4 33 -25z m124 -16 c-2 -17 -8 -33 -13 -36 -10 -6 -12 49 -2 59 14 14
19 6 15 -23z m728 -15 c0 -16 -27 -28 -36 -14 -7 12 15 41 27 33 5 -3 9 -11 9
-19z m-2060 -26 c0 -6 -4 -7 -10 -4 -5 3 -10 11 -10 16 0 6 5 7 10 4 6 -3 10
-11 10 -16z m1393 0 c21 0 21 -1 2 -8 -20 -8 -35 3 -34 24 0 6 3 4 6 -2 2 -7
14 -13 26 -14z m-1533 -23 c0 -3 -4 -8 -10 -11 -5 -3 -10 -1 -10 4 0 6 5 11
10 11 6 0 10 -2 10 -4z m1304 -7 c-3 -5 -11 -9 -19 -9 -8 0 -16 4 -19 9 -3 5
5 9 19 9 14 0 22 -4 19 -9z m44 -37 c2 -7 -3 -12 -12 -12 -9 0 -16 7 -16 16 0
17 22 14 28 -4z m-1368 0 c0 -4 -9 -13 -21 -20 -19 -12 -19 -11 -9 8 10 19 30
28 30 12z m610 -22 c0 -5 -2 -10 -4 -10 -3 0 -8 5 -11 10 -3 6 -1 10 4 10 6 0
11 -4 11 -10z m1678 -8 c2 -7 -2 -10 -12 -6 -9 3 -16 11 -16 16 0 13 23 5 28
-10z m110 -55 c3 -15 -1 -17 -25 -11 -35 8 -37 10 -28 24 10 17 49 8 53 -13z
m-1868 9 c0 -3 -4 -8 -10 -11 -5 -3 -10 -1 -10 4 0 6 5 11 10 11 6 0 10 -2 10
-4z m905 -6 c17 14 17 15 33 -22 7 -17 8 -28 2 -28 -16 0 -12 -27 5 -34 11 -4
15 1 15 19 0 31 14 32 34 3 24 -34 21 -51 -5 -36 -17 11 -22 10 -32 -3 -13
-17 -103 -49 -137 -49 -16 0 -20 -5 -16 -15 3 -8 1 -15 -3 -15 -16 0 -19 27
-6 51 8 13 18 33 23 43 7 15 11 16 17 6 5 -8 3 -17 -6 -24 -16 -12 -23 -36
-11 -36 4 0 15 12 25 26 20 26 15 64 -8 64 -7 0 -15 9 -18 19 -4 17 -2 18 20
10 20 -7 24 -7 20 5 -8 20 3 28 20 15 10 -9 17 -8 28 1z m1523 -9 c3 -8 -1
-12 -9 -9 -7 2 -15 10 -17 17 -3 8 1 12 9 9 7 -2 15 -10 17 -17z m26 -56 c-4
-8 -12 -15 -20 -15 -8 0 -14 -4 -14 -10 0 -5 -7 -10 -15 -10 -22 0 -18 17 7
34 28 20 49 21 42 1z m-1304 -11 c0 -8 -5 -12 -10 -9 -6 4 -8 11 -5 16 9 14
15 11 15 -7z m1210 6 c0 -5 -4 -10 -10 -10 -5 0 -10 5 -10 10 0 6 5 10 10 10
6 0 10 -4 10 -10z m130 -50 c0 -5 -4 -10 -10 -10 -5 0 -10 5 -10 10 0 6 5 10
10 10 6 0 10 -4 10 -10z m-60 -20 c0 -5 -5 -10 -11 -10 -5 0 -7 5 -4 10 3 6 8
10 11 10 2 0 4 -4 4 -10z m-2430 -10 c0 -5 -5 -10 -11 -10 -5 0 -7 5 -4 10 3
6 8 10 11 10 2 0 4 -4 4 -10z m-320 -14 c0 -3 -4 -8 -10 -11 -5 -3 -10 -1 -10
4 0 6 5 11 10 11 6 0 10 -2 10 -4z m2180 -6 c0 -5 -4 -10 -10 -10 -5 0 -10 5
-10 10 0 6 5 10 10 10 6 0 10 -4 10 -10z m593 -21 c-5 -19 -7 -19 -15 -5 -10
18 -2 39 12 31 4 -3 6 -15 3 -26z m-673 -29 c0 -5 14 -10 30 -10 33 0 38 -13
16 -36 -10 -9 -17 -10 -21 -4 -4 6 -12 10 -18 9 -26 -3 -37 2 -37 16 0 13 -6
11 -30 -6 -31 -23 -47 -21 -37 6 4 8 15 15 26 15 11 0 23 5 26 10 3 6 15 10
26 10 10 0 19 -4 19 -10z m730 -21 c0 -11 -4 -17 -10 -14 -5 3 -10 13 -10 21
0 8 5 14 10 14 6 0 10 -9 10 -21z m-2540 -4 c0 -8 -6 -15 -14 -15 -8 0 -16 7
-20 15 -4 10 1 15 14 15 11 0 20 -7 20 -15z m1510 -55 c0 -5 -4 -10 -10 -10
-5 0 -10 5 -10 10 0 6 5 10 10 10 6 0 10 -4 10 -10z m195 -10 c-3 -5 -11 -10
-16 -10 -6 0 -7 5 -4 10 3 6 11 10 16 10 6 0 7 -4 4 -10z m96 -3 c-1 -4 -1
-14 -1 -22 0 -8 -3 -15 -7 -15 -5 0 -8 11 -8 25 0 14 4 24 8 22 5 -1 8 -6 8
-10z m44 3 c3 -5 1 -10 -4 -10 -6 0 -11 5 -11 10 0 6 2 10 4 10 3 0 8 -4 11
-10z m-396 -55 c-9 -8 -40 25 -34 35 5 8 12 4 22 -10 8 -12 13 -23 12 -25z
m486 25 c3 -5 1 -10 -4 -10 -6 0 -11 5 -11 10 0 6 2 10 4 10 3 0 8 -4 11 -10z"/>
<path d="M5230 1222 c0 -22 4 -32 12 -30 18 6 20 22 3 43 -14 19 -14 18 -15
-13z"/>
<path d="M5031 1224 c0 -11 3 -14 6 -6 3 7 2 16 -1 19 -3 4 -6 -2 -5 -13z"/>
<path d="M5055 1231 c-6 -11 9 -23 19 -14 9 9 7 23 -3 23 -6 0 -12 -4 -16 -9z"/>
<path d="M4781 1213 c-5 -10 -17 -18 -27 -18 -9 0 -19 -5 -21 -11 -2 -7 5 -10
21 -7 30 6 62 38 47 47 -5 4 -14 -2 -20 -11z"/>
<path d="M4940 1220 c0 -5 5 -10 10 -10 6 0 10 5 10 10 0 6 -4 10 -10 10 -5 0
-10 -4 -10 -10z"/>
<path d="M4980 1200 c0 -5 5 -10 11 -10 5 0 7 5 4 10 -3 6 -8 10 -11 10 -2 0
-4 -4 -4 -10z"/>
<path d="M4645 1171 c-9 -16 5 -33 21 -27 7 3 16 1 19 -5 7 -10 25 -3 25 10 0
5 -8 11 -17 15 -10 3 -23 8 -30 12 -6 3 -14 0 -18 -5z"/>
<path d="M5262 1149 c-12 -19 -9 -39 7 -39 12 0 22 43 13 52 -4 4 -13 -2 -20
-13z"/>
<path d="M5203 1153 c9 -2 23 -2 30 0 6 3 -1 5 -18 5 -16 0 -22 -2 -12 -5z"/>
<path d="M5346 1062 c-2 -4 -1 -13 3 -20 4 -8 11 -5 19 8 10 16 10 20 -2 20
-8 0 -17 -4 -20 -8z"/>
<path d="M5037 999 c-6 -22 7 -33 26 -22 10 6 10 11 -4 25 -16 15 -17 15 -22
-3z"/>
<path d="M5250 896 c0 -9 5 -16 10 -16 6 0 10 4 10 9 0 6 -4 13 -10 16 -5 3
-10 -1 -10 -9z"/>
<path d="M4542 1029 c2 -7 10 -15 17 -17 8 -3 12 1 9 9 -2 7 -10 15 -17 17 -8
3 -12 -1 -9 -9z"/>
<path d="M3005 2330 c-3 -5 -5 -10 -3 -11 2 0 18 -2 37 -5 29 -4 32 -2 21 11
-14 17 -46 20 -55 5z"/>
<path d="M5125 2220 c3 -5 8 -10 11 -10 2 0 4 5 4 10 0 6 -5 10 -11 10 -5 0
-7 -4 -4 -10z"/>
<path d="M2727 2134 c-13 -13 -7 -24 14 -24 11 0 19 5 17 12 -5 14 -22 21 -31
12z"/>
<path d="M5254 2035 c-4 -8 -12 -15 -20 -15 -8 0 -14 -4 -14 -10 0 -15 35 -29
58 -23 13 3 22 1 22 -6 0 -7 9 -9 25 -5 15 4 25 2 25 -5 0 -6 5 -11 11 -11 6
0 9 10 7 22 -2 15 -13 24 -38 31 -19 5 -39 15 -43 23 -10 18 -26 18 -33 -1z"/>
<path d="M2901 2023 c-8 -15 -12 -16 -22 -5 -15 14 -65 16 -73 3 -4 -5 -30
-12 -59 -16 -74 -10 -200 -44 -208 -57 -4 -6 -11 -8 -17 -4 -5 3 -15 -1 -22
-9 -6 -8 -26 -14 -43 -14 -35 1 -181 -43 -202 -61 -7 -6 -17 -10 -21 -9 -21 4
-34 -2 -34 -15 0 -9 -7 -12 -18 -10 -9 3 -35 -3 -57 -12 -22 -10 -43 -17 -46
-16 -4 1 -9 -8 -12 -18 -3 -12 0 -20 7 -20 7 0 21 -9 31 -20 10 -11 21 -17 26
-14 5 3 16 -4 26 -16 20 -23 35 -25 63 -8 25 16 55 0 55 -28 0 -10 8 -20 18
-22 9 -2 17 2 17 9 0 20 33 38 73 39 26 0 37 4 37 15 0 10 16 16 51 21 30 4
62 16 77 29 15 12 38 25 52 28 51 11 104 35 116 52 7 10 19 15 27 12 8 -3 30
5 49 18 19 13 45 25 59 27 16 2 25 10 27 27 3 18 8 22 28 18 13 -2 21 -1 19 3
-3 4 4 15 15 25 19 17 20 17 20 1 0 -10 -5 -14 -12 -10 -7 4 -8 3 -4 -4 5 -9
13 -9 27 -2 23 13 25 28 3 37 -8 3 -13 12 -10 19 3 8 0 11 -10 7 -7 -3 -14 0
-14 6 0 17 -28 13 -39 -6z m-144 -79 c-3 -3 -12 -4 -19 -1 -8 3 -5 6 6 6 11 1
17 -2 13 -5z"/>
<path d="M7120 1905 c0 -8 2 -15 4 -15 2 0 6 7 10 15 3 8 1 15 -4 15 -6 0 -10
-7 -10 -15z"/>
<path d="M5255 1900 c3 -5 11 -10 16 -10 6 0 7 5 4 10 -3 6 -11 10 -16 10 -6
0 -7 -4 -4 -10z"/>
<path d="M2913 1869 c-7 -7 -9 -25 -6 -43 l6 -31 -22 23 c-12 12 -27 19 -33
16 -7 -5 -4 -12 8 -22 18 -13 16 -14 -16 -9 -19 2 -44 0 -55 -6 -11 -6 -33
-12 -48 -13 -15 -1 -36 -9 -46 -18 -10 -9 -21 -16 -26 -16 -4 0 -16 -9 -26
-21 -11 -13 -25 -19 -36 -15 -25 8 -48 -8 -37 -25 6 -12 5 -12 -8 -1 -13 10
-19 10 -31 -3 -9 -8 -21 -15 -27 -15 -7 0 -24 -8 -38 -19 -15 -10 -37 -22 -49
-25 -13 -4 -23 -11 -23 -15 0 -3 -13 -15 -30 -24 -32 -19 -39 -37 -15 -37 8 0
15 5 15 10 0 6 7 10 16 10 14 0 14 -3 4 -15 -15 -18 -14 -19 25 -32 18 -6 29
-17 29 -27 -2 -16 6 -20 37 -17 9 1 19 -7 22 -19 3 -11 12 -20 21 -20 9 0 16
-4 16 -10 0 -8 50 -40 63 -40 3 0 7 8 9 18 3 10 22 27 44 37 21 10 49 29 63
42 14 14 45 34 69 45 23 10 42 23 42 28 0 6 6 10 14 10 23 0 67 27 98 60 l28
32 -22 18 -23 19 23 -6 c18 -4 22 -1 22 17 0 16 -4 20 -15 16 -8 -3 -15 -1
-15 5 0 6 -8 9 -17 8 -19 -3 -88 29 -80 37 2 2 22 -2 45 -10 47 -17 112 -11
112 11 0 7 -7 16 -15 19 -8 4 -15 12 -15 20 0 8 -7 14 -15 14 -8 0 -15 5 -15
11 0 6 9 8 23 4 l22 -7 -22 21 c-25 24 -34 26 -50 10z"/>
<path d="M3077 1863 c7 -19 30 -23 57 -10 37 17 32 24 -18 23 -29 -1 -42 -5
-39 -13z"/>
<path d="M3020 1830 c0 -5 4 -10 9 -10 6 0 13 5 16 10 3 6 -1 10 -9 10 -9 0
-16 -4 -16 -10z"/>
<path d="M5490 1742 c0 -15 5 -19 20 -15 24 6 21 26 -3 31 -11 2 -17 -3 -17
-16z"/>
<path d="M3005 1700 c-8 -13 4 -32 16 -25 12 8 12 35 0 35 -6 0 -13 -4 -16
-10z"/>
<path d="M6978 1704 c-9 -14 7 -50 16 -36 4 7 3 19 -2 28 -5 9 -12 13 -14 8z"/>
<path d="M7383 1698 c2 -7 10 -13 17 -13 7 0 15 6 18 13 2 7 -5 12 -18 12 -13
0 -20 -5 -17 -12z"/>
<path d="M7800 1699 c0 -5 5 -7 10 -4 6 3 10 8 10 11 0 2 -4 4 -10 4 -5 0 -10
-5 -10 -11z"/>
<path d="M6910 1686 c0 -9 5 -16 10 -16 6 0 10 4 10 9 0 6 -4 13 -10 16 -5 3
-10 -1 -10 -9z"/>
<path d="M3363 1663 c-13 -2 -23 -8 -23 -12 0 -4 -14 -8 -31 -9 -19 0 -45 -13
-72 -36 -102 -86 -134 -115 -194 -171 -101 -94 -213 -213 -213 -225 0 -10 82
-48 110 -50 65 -5 80 -1 80 24 0 14 5 28 10 31 6 3 10 14 10 24 0 23 42 66 81
83 19 9 29 20 29 35 0 12 5 25 11 28 6 4 8 12 6 19 -6 14 11 37 38 52 11 6 25
25 30 42 6 18 19 38 30 45 10 8 15 19 12 25 -5 6 0 8 13 5 15 -4 20 0 20 16 0
14 8 23 25 27 14 3 25 11 25 16 0 6 8 17 18 24 9 7 15 13 12 12 -3 0 -15 -3
-27 -5z m-403 -464 c0 -5 -7 -9 -15 -9 -15 0 -20 12 -9 23 8 8 24 -1 24 -14z"/>
<path d="M7500 1655 c0 -17 9 -19 28 -6 11 7 10 10 -3 15 -23 9 -25 8 -25 -9z"/>
<path d="M3084 1635 c-4 -10 -14 -13 -29 -9 -24 6 -43 -10 -25 -21 6 -4 8 -11
5 -16 -4 -5 -1 -9 4 -9 6 0 11 7 11 15 0 13 4 14 20 5 21 -11 44 -5 35 10 -3
5 -1 11 5 15 15 9 12 25 -5 25 -9 0 -18 -7 -21 -15z"/>
<path d="M3135 1640 c-3 -5 1 -10 9 -10 8 0 18 5 21 10 3 6 -1 10 -9 10 -8 0
-18 -4 -21 -10z"/>
<path d="M7050 1631 c0 -19 17 -38 25 -29 7 7 -7 48 -16 48 -5 0 -9 -9 -9 -19z"/>
<path d="M5835 1620 c3 -5 8 -10 11 -10 2 0 4 5 4 10 0 6 -5 10 -11 10 -5 0
-7 -4 -4 -10z"/>
<path d="M7570 1610 c0 -5 5 -10 10 -10 6 0 10 5 10 10 0 6 -4 10 -10 10 -5 0
-10 -4 -10 -10z"/>
<path d="M5930 1590 c0 -5 5 -10 11 -10 5 0 7 5 4 10 -3 6 -8 10 -11 10 -2 0
-4 -4 -4 -10z"/>
<path d="M5873 1579 c9 -6 15 -14 12 -20 -4 -5 2 -9 11 -9 16 0 16 1 -1 20
-10 11 -23 20 -29 20 -6 0 -3 -5 7 -11z"/>
<path d="M6026 1563 c-16 -8 -24 -18 -19 -22 6 -3 13 -16 17 -29 8 -24 41 -46
55 -38 5 3 12 -5 15 -19 4 -17 13 -25 27 -25 12 0 19 -5 16 -12 -2 -7 0 -22 6
-33 6 -11 10 -36 8 -56 -1 -26 5 -45 22 -65 28 -36 47 -78 47 -107 0 -19 2
-19 14 -7 12 12 13 23 3 58 -6 23 -14 42 -18 42 -13 0 -32 91 -21 102 15 15
31 1 25 -22 -4 -16 -2 -19 11 -14 10 4 18 0 22 -10 4 -9 19 -23 35 -32 32 -16
38 -34 12 -34 -11 0 -14 -3 -7 -8 6 -4 14 -17 18 -29 4 -13 14 -23 21 -23 9 0
12 -6 9 -15 -3 -8 0 -28 8 -45 10 -25 17 -30 36 -25 20 5 22 3 12 -14 -12 -23
5 -40 22 -23 16 16 -19 75 -43 69 -15 -4 -18 0 -17 19 2 18 8 24 25 24 13 0
26 -7 29 -15 9 -23 26 -18 22 8 -2 12 -7 20 -11 17 -10 -6 -36 38 -37 61 0 9
-9 19 -20 22 -11 3 -20 10 -20 16 0 8 6 9 19 1 31 -16 34 6 5 29 -16 13 -24
26 -20 36 4 11 0 15 -12 13 -23 -4 -29 38 -8 61 15 16 15 19 1 31 -13 11 -14
10 -9 -5 9 -23 -13 -11 -39 21 -13 17 -25 22 -53 19 -20 -2 -41 -9 -45 -17 -7
-10 -9 -9 -9 5 0 9 5 17 10 17 20 0 9 25 -16 37 -21 10 -28 9 -44 -7 -20 -20
-16 -30 12 -30 12 0 18 -7 18 -21 0 -15 -4 -19 -16 -15 -9 3 -21 6 -26 6 -6 0
-9 3 -5 6 3 3 -4 17 -16 31 -12 13 -22 30 -23 36 0 7 -2 20 -2 30 -2 20 -7 20
-46 0z m266 -150 c-5 -16 -22 -17 -22 -2 0 6 -7 17 -15 25 -27 27 -16 36 14
12 15 -13 26 -29 23 -35z m-77 16 c6 -19 0 -38 -9 -28 -10 12 -16 49 -7 49 5
0 13 -9 16 -21z m133 -207 c2 -7 -3 -12 -12 -12 -9 0 -16 7 -16 16 0 17 22 14
28 -4z"/>
<path d="M2938 1553 c-16 -8 -28 -20 -28 -28 0 -8 -7 -11 -20 -8 -12 3 -22 -1
-26 -10 -3 -8 -19 -21 -35 -27 -16 -7 -29 -16 -29 -20 0 -4 -9 -10 -20 -13
-27 -7 -25 -27 3 -27 27 0 44 11 49 30 2 7 24 24 51 37 26 12 47 26 47 31 0 5
14 12 30 16 18 3 30 12 30 21 0 18 -16 18 -52 -2z"/>
<path d="M7220 1545 c0 -8 2 -15 4 -15 2 0 11 -3 20 -6 23 -9 20 13 -4 26 -16
9 -20 8 -20 -5z"/>
<path d="M6215 1520 c3 -5 8 -10 11 -10 2 0 4 5 4 10 0 6 -5 10 -11 10 -5 0
-7 -4 -4 -10z"/>
<path d="M7040 1496 c0 -2 9 -6 20 -9 11 -3 18 -1 14 4 -5 9 -34 13 -34 5z"/>
<path d="M2912 1450 c-18 -10 -42 -26 -53 -36 -12 -11 -36 -18 -59 -19 -21 0
-35 -4 -32 -9 3 -5 -2 -6 -12 -3 -10 4 -15 3 -11 -3 3 -6 3 -10 -2 -10 -4 0
-16 -7 -26 -14 -14 -11 -15 -19 -8 -39 8 -21 16 -25 48 -24 39 2 93 35 93 56
0 6 4 11 8 11 10 0 112 94 112 103 0 11 -23 6 -58 -13z"/>
<path d="M7110 1450 c-13 -8 -12 -10 3 -10 9 0 17 5 17 10 0 12 -1 12 -20 0z"/>
<path d="M6370 1430 c0 -5 5 -10 10 -10 6 0 10 5 10 10 0 6 -4 10 -10 10 -5 0
-10 -4 -10 -10z"/>
<path d="M7380 1426 c0 -9 5 -16 10 -16 6 0 10 4 10 9 0 6 -4 13 -10 16 -5 3
-10 -1 -10 -9z"/>
<path d="M6402 1394 c-15 -16 -8 -34 13 -34 20 0 26 15 12 33 -10 14 -14 14
-25 1z"/>
<path d="M6915 1360 c4 -6 11 -8 16 -5 14 9 11 15 -7 15 -8 0 -12 -5 -9 -10z"/>
<path d="M6963 1352 c-7 -12 -8 -24 -2 -33 7 -11 9 -11 9 4 0 9 5 17 10 17 6
0 10 7 10 15 0 20 -13 19 -27 -3z"/>
<path d="M6620 1340 c0 -6 7 -13 15 -17 24 -9 27 1 5 15 -13 8 -20 8 -20 2z"/>
<path d="M6430 1330 c0 -6 7 -13 15 -16 8 -4 15 -12 15 -20 0 -8 7 -14 15 -14
21 0 19 30 -2 46 -22 16 -43 18 -43 4z"/>
<path d="M6676 1234 c-11 -7 -18 -15 -15 -16 2 -2 19 -14 38 -27 24 -17 32
-19 28 -9 -3 9 -1 20 5 26 8 8 6 13 -8 18 -10 4 -21 11 -24 15 -3 4 -14 1 -24
-7z"/>
<path d="M6116 1132 c-2 -4 -1 -14 4 -22 7 -12 11 -12 26 1 16 12 17 12 11 -3
-3 -10 -2 -18 3 -18 14 0 12 24 -2 38 -14 14 -35 16 -42 4z"/>
<path d="M3037 1103 c-4 -3 -7 -11 -7 -17 0 -6 5 -5 12 2 6 6 9 14 7 17 -3 3
-9 2 -12 -2z"/>
<path d="M6570 1100 c0 -5 7 -10 15 -10 8 0 15 5 15 10 0 6 -7 10 -15 10 -8 0
-15 -4 -15 -10z"/>
<path d="M3070 1096 c0 -2 7 -9 15 -16 12 -10 15 -10 15 4 0 9 -7 16 -15 16
-8 0 -15 -2 -15 -4z"/>
<path d="M3330 1084 c0 -8 5 -12 10 -9 6 3 10 10 10 16 0 5 -4 9 -10 9 -5 0
-10 -7 -10 -16z"/>
<path d="M6441 1044 c0 -11 3 -14 6 -6 3 7 2 16 -1 19 -3 4 -6 -2 -5 -13z"/>
<path d="M6416 983 c9 -38 11 -39 16 -3 3 21 0 30 -9 30 -10 0 -11 -8 -7 -27z"/>
<path d="M6380 991 c0 -6 5 -13 10 -16 6 -3 10 1 10 9 0 9 -4 16 -10 16 -5 0
-10 -4 -10 -9z"/>
<path d="M3260 969 c0 -5 5 -7 10 -4 6 3 10 8 10 11 0 2 -4 4 -10 4 -5 0 -10
-5 -10 -11z"/>
<path d="M6440 944 c0 -4 8 -13 18 -20 16 -12 15 -13 -8 -23 l-25 -10 28 2
c33 2 50 18 41 41 -6 15 -54 24 -54 10z"/>
<path d="M6452 842 c-11 -8 -7 -42 5 -42 12 0 34 31 28 40 -7 12 -16 12 -33 2z"/>
<path d="M6237 683 c-12 -11 -8 -23 8 -23 8 0 15 7 15 15 0 16 -12 20 -23 8z"/>
</g>
</svg>
