<?xml version="1.0" standalone="no"?>
<!DOCTYPE svg PUBLIC "-//W3C//DTD SVG 20010904//EN"
 "http://www.w3.org/TR/2001/REC-SVG-20010904/DTD/svg10.dtd">
<svg version="1.0" xmlns="http://www.w3.org/2000/svg"
 width="1017.000000pt" height="1017.000000pt" viewBox="0 0 1017.000000 1017.000000"
 preserveAspectRatio="xMidYMid meet">
<metadata>
Created by potrace 1.14, written by Peter Selinger 2001-2017
</metadata>
<g transform="translate(0.000000,1017.000000) scale(0.100000,-0.100000)"
fill="#000000" stroke="none">
<path d="M8473 8549 c-32 -34 -125 -130 -208 -213 -216 -218 -448 -468 -469
-505 -28 -49 -115 -154 -240 -291 -85 -92 -111 -121 -211 -235 -43 -49 -115
-130 -159 -178 -44 -48 -98 -111 -119 -140 -21 -29 -73 -90 -115 -136 -43 -46
-79 -87 -82 -91 -12 -16 -135 -110 -145 -110 -6 0 -29 -20 -51 -45 -30 -35
-44 -44 -60 -40 -13 3 -27 -1 -34 -10 -15 -18 -37 -19 -43 -2 -3 6 -6 1 -6
-12 -1 -16 -5 -21 -16 -18 -8 4 -17 2 -21 -4 -3 -5 -14 -7 -25 -4 -13 4 -19 2
-19 -8 0 -17 -86 -30 -110 -17 -8 4 -41 11 -72 15 -46 6 -66 15 -100 44 -80
68 -77 67 -94 42 -13 -17 -19 -19 -30 -10 -7 6 -12 15 -9 19 3 4 -2 14 -11 21
-12 10 -17 10 -23 0 -4 -7 -24 -14 -43 -15 -32 -3 -37 0 -52 30 -9 19 -16 42
-16 52 -1 16 -40 -53 -40 -70 0 -15 -43 -68 -51 -63 -4 3 -9 -1 -12 -8 -7 -18
-62 -20 -77 -2 -7 8 -18 15 -25 15 -18 0 -47 48 -50 80 -2 30 -43 90 -61 90
-19 0 -22 -24 -5 -37 14 -11 13 -12 -6 -13 -16 0 -23 -6 -23 -20 0 -11 -8 -24
-17 -27 -10 -4 -22 -12 -26 -20 -12 -20 -32 -16 -60 13 -18 18 -34 25 -47 21
-11 -3 -20 -2 -20 3 0 13 -39 19 -43 7 -3 -9 -10 -9 -29 0 -21 9 -26 8 -36 -8
-9 -14 -19 -17 -41 -13 -21 5 -35 1 -47 -11 -18 -18 -63 -13 -76 8 -6 9 -13 9
-29 -1 -18 -12 -23 -11 -35 5 -14 17 -15 17 -30 -4 -15 -21 -16 -21 -66 -3
-28 9 -53 22 -57 28 -3 6 -25 9 -49 8 -29 -1 -42 2 -42 11 0 16 -42 27 -69 18
-15 -4 -21 -2 -21 9 0 13 -4 14 -25 4 -18 -8 -22 -15 -15 -23 8 -9 5 -14 -10
-18 -12 -3 -26 -19 -33 -36 -10 -29 -42 -48 -52 -31 -7 11 -94 33 -143 35 -23
1 -48 7 -54 13 -14 14 -48 16 -48 3 0 -16 -59 -6 -77 14 -22 24 -79 65 -90 65
-5 0 -14 -9 -21 -20 -7 -11 -18 -20 -25 -20 -6 0 -25 -11 -41 -25 -16 -14 -37
-25 -46 -25 -9 0 -31 -7 -49 -16 -37 -19 -113 -31 -110 -18 3 20 -2 28 -10 15
-7 -11 -15 -11 -41 -2 -18 6 -42 11 -53 11 -11 0 -28 10 -38 21 -10 12 -25 19
-33 16 -9 -4 -18 -2 -21 3 -4 6 -15 10 -26 10 -10 0 -19 6 -19 14 0 14 -38 51
-93 91 -21 15 -26 26 -22 43 4 15 1 22 -8 22 -8 0 -22 9 -32 20 -10 11 -24 20
-32 20 -7 0 -13 5 -13 11 0 14 -26 39 -40 39 -6 0 -10 7 -8 16 2 11 -5 18 -19
19 -28 2 -36 9 -40 38 -2 12 -17 33 -34 47 -25 21 -28 28 -17 39 11 11 9 13
-14 7 -23 -5 -28 -3 -28 12 0 11 -9 31 -20 45 -11 14 -20 31 -20 39 0 25 -74
88 -103 88 -24 0 -31 7 -49 50 -15 35 -26 50 -40 50 -12 0 -18 6 -16 17 2 11
-6 22 -19 28 -12 5 -25 22 -28 37 -6 27 -71 120 -88 127 -5 2 -17 12 -26 23
-9 11 -39 43 -68 70 -29 28 -64 67 -78 88 -15 21 -41 45 -59 54 -32 15 -80 67
-106 117 -8 16 -29 39 -46 51 -17 13 -58 55 -91 93 -73 84 -123 132 -123 118
0 -18 -47 -2 -58 20 -9 19 -11 20 -11 3 -1 -12 -6 -16 -17 -12 -9 3 -24 6 -35
6 -11 0 -19 7 -19 18 -1 24 -24 52 -44 52 -8 0 -21 9 -28 20 -7 11 -20 20 -30
20 -9 0 -19 9 -23 19 -3 12 -19 21 -41 25 -20 4 -33 12 -32 19 3 14 -7 16 -34
9 -20 -5 -23 -17 -8 -27 20 -12 9 -26 -17 -23 -18 2 -35 14 -48 35 -21 34 -48
53 -38 27 3 -7 0 -14 -7 -14 -9 0 -8 -7 3 -24 18 -26 17 -70 -1 -88 -7 -7 -12
-18 -12 -25 0 -7 -15 -20 -32 -29 -23 -12 -29 -19 -18 -22 8 -3 20 -12 27 -21
10 -13 8 -19 -10 -33 -21 -16 -21 -17 -3 -37 19 -21 19 -21 -2 -21 -28 0 -28
-17 1 -60 33 -49 39 -70 22 -70 -9 0 -15 -10 -15 -24 0 -14 -4 -28 -10 -31 -5
-3 -10 -13 -10 -22 0 -13 3 -13 15 -3 9 8 15 9 15 2 0 -6 -5 -14 -10 -17 -6
-4 -7 -11 -4 -17 4 -5 0 -21 -7 -35 -11 -20 -11 -28 0 -45 9 -15 10 -23 2 -31
-20 -20 -11 -31 9 -12 26 23 28 0 3 -28 -16 -17 -16 -20 -2 -30 20 -15 13 -37
-12 -37 -15 0 -17 -5 -13 -30 6 -26 4 -30 -16 -30 -18 0 -20 -3 -11 -14 10
-11 8 -16 -5 -24 -15 -8 -15 -12 -3 -27 30 -36 62 -65 74 -65 8 0 10 -9 7 -25
-2 -14 -11 -25 -19 -25 -11 0 -13 7 -9 25 8 31 -4 32 -30 2 -19 -22 -27 -67
-12 -67 4 0 7 -10 5 -22 -1 -18 3 -23 22 -23 14 0 27 -7 29 -14 3 -10 -2 -12
-22 -9 -31 6 -46 -14 -29 -41 5 -9 9 -26 8 -39 -1 -18 2 -22 16 -19 10 3 20 0
21 -5 2 -5 20 0 41 12 38 23 41 40 5 40 -14 0 -18 -5 -14 -15 4 -12 2 -13 -14
-3 -14 9 -16 16 -9 30 5 10 17 18 25 18 9 0 22 7 31 15 12 12 13 19 3 30 -8 9
-8 15 -2 15 6 0 18 3 28 7 11 4 15 3 11 -4 -7 -11 23 -23 61 -23 12 0 30 9 39
20 10 11 22 20 29 20 6 0 16 11 22 25 10 22 9 27 -9 33 -34 13 -74 9 -74 -8 0
-8 6 -15 13 -15 14 0 20 -10 11 -20 -11 -10 -69 54 -62 70 3 8 18 15 33 15 16
0 31 4 34 9 3 4 23 11 45 15 22 3 41 13 45 22 4 12 14 14 36 9 19 -4 30 -3 30
4 0 6 7 11 15 11 16 0 20 12 7 24 -4 4 -7 11 -7 14 0 11 -55 62 -65 62 -5 0
-7 -7 -4 -15 11 -29 -25 -11 -54 27 -12 15 -8 20 37 42 28 15 58 26 67 26 10
0 14 5 10 16 -3 8 -2 13 3 9 5 -3 11 -2 14 2 2 5 3 3 1 -4 -1 -6 7 -13 18 -17
18 -4 19 -7 8 -21 -7 -8 -10 -18 -7 -22 4 -3 3 -11 -2 -17 -14 -18 -20 -56 -9
-62 5 -3 13 -15 17 -26 7 -19 8 -19 25 -3 12 13 25 15 49 11 18 -4 43 -7 57
-7 49 1 125 -41 124 -69 -1 -18 8 -24 29 -21 4 0 7 -8 7 -19 0 -13 -9 -22 -25
-26 -14 -4 -24 -9 -22 -13 1 -3 11 -22 20 -42 16 -36 17 -37 70 -34 l54 2 -14
-27 c-7 -16 -21 -31 -31 -35 -15 -6 -14 -8 6 -16 12 -4 22 -15 22 -24 0 -9 7
-15 17 -13 24 4 37 -49 15 -62 -15 -8 -14 -9 4 -10 12 0 25 -7 28 -16 3 -8 10
-12 16 -9 5 3 10 2 10 -2 0 -5 10 -13 22 -18 30 -14 38 -40 9 -32 -14 3 -26
-1 -36 -16 -19 -27 -5 -36 44 -30 22 3 43 -1 55 -10 19 -14 19 -15 -2 -26 -12
-6 -22 -18 -22 -26 0 -8 -7 -15 -15 -15 -8 0 -15 -4 -15 -10 0 -5 15 -10 34
-10 21 0 36 -6 40 -15 3 -8 17 -15 31 -15 25 0 33 -14 15 -25 -6 -4 -17 -2
-24 5 -11 8 -15 8 -18 -1 -3 -9 -9 -8 -25 2 -16 9 -27 10 -45 2 -17 -7 -28 -7
-44 4 -20 13 -22 12 -26 -11 -6 -30 7 -35 107 -42 39 -3 84 -11 100 -18 33
-15 92 -16 114 -2 11 7 13 5 8 -7 -9 -25 16 -39 48 -27 21 8 30 8 36 -1 4 -7
14 -9 23 -6 9 4 23 4 32 0 19 -7 10 -79 -14 -106 -13 -15 -14 -20 -3 -26 8 -5
10 -14 7 -20 -4 -6 0 -11 8 -11 9 0 16 -4 16 -10 0 -5 7 -10 16 -10 23 0 13
-32 -14 -46 -13 -6 -37 -8 -55 -5 -28 6 -32 11 -35 43 -2 26 -10 41 -28 53
-29 19 -37 15 -39 -20 -1 -27 16 -38 41 -28 13 5 15 2 9 -16 -5 -16 -1 -26 12
-36 17 -13 17 -14 -4 -35 -25 -23 -29 -36 -12 -42 12 -4 1 -58 -12 -58 -10 0
-12 -33 -2 -43 3 -4 12 -2 19 4 19 16 35 1 28 -25 -4 -19 2 -30 35 -57 23 -18
41 -41 41 -51 0 -10 7 -18 15 -18 8 0 19 -9 25 -20 6 -11 15 -20 20 -20 12 0
160 -141 160 -152 0 -4 -7 -8 -15 -8 -17 0 -55 35 -55 50 0 6 -5 10 -11 10 -7
0 -42 31 -80 69 -62 64 -71 70 -108 69 -23 0 -41 -5 -41 -11 0 -5 -9 0 -20 13
-24 28 -16 44 17 35 22 -5 23 -4 13 15 -12 22 -30 27 -30 8 0 -6 -8 -4 -19 6
-15 14 -24 15 -40 6 -17 -8 -21 -8 -21 3 0 9 -13 14 -38 14 -20 0 -58 2 -83 4
-39 4 -46 2 -41 -11 5 -13 3 -13 -19 1 -22 15 -108 32 -151 31 -10 -1 -18 6
-18 14 0 21 -10 17 -32 -12 -14 -16 -27 -24 -39 -21 -11 3 -22 1 -25 -4 -3 -5
-14 -4 -26 2 -11 6 -24 7 -29 2 -13 -13 1 -52 16 -47 7 3 30 1 50 -5 30 -8 39
-7 54 8 20 20 71 36 71 22 0 -14 54 -20 69 -8 11 10 13 8 7 -9 -4 -14 -1 -26
9 -34 9 -8 15 -8 15 -2 0 6 -4 14 -10 17 -6 4 -5 11 3 20 8 9 16 10 25 3 7 -6
27 -12 44 -14 55 -7 66 -36 14 -36 -14 0 -34 -9 -45 -20 -16 -14 -25 -16 -40
-8 -25 13 -34 13 -26 0 3 -5 2 -10 -4 -10 -6 0 -8 -7 -5 -15 8 -19 -13 -19
-32 0 -22 21 -54 19 -81 -7 -22 -20 -27 -21 -69 -10 -25 7 -50 10 -55 7 -14
-9 -11 -26 6 -39 13 -10 13 -13 -4 -23 -13 -8 -22 -9 -26 -3 -3 6 -1 10 6 10
7 0 5 8 -6 20 -22 24 -40 26 -31 4 6 -16 -26 -54 -46 -54 -4 0 -8 -7 -8 -15 0
-8 -7 -15 -15 -15 -8 0 -15 4 -15 9 0 23 -60 22 -100 0 -35 -20 -45 -22 -72
-11 -17 6 -34 9 -38 7 -13 -8 -4 40 10 53 13 11 11 12 -10 6 -14 -3 -31 -11
-37 -16 -9 -7 -15 -5 -19 6 -4 11 -13 15 -27 10 -14 -4 -25 0 -38 17 -17 23
-18 23 -37 6 -19 -18 -20 -18 -33 1 -15 20 -59 36 -59 21 0 -4 8 -13 18 -18
10 -5 18 -19 19 -31 3 -35 13 -37 38 -7 26 30 48 36 38 11 -3 -8 -16 -20 -29
-24 -17 -7 -22 -14 -17 -27 9 -26 25 -34 41 -21 9 8 16 8 24 0 7 -7 21 -12 31
-12 14 0 18 -5 14 -20 -3 -13 3 -24 20 -35 30 -20 24 -32 -7 -15 -18 10 -24 9
-31 -1 -5 -8 -3 -16 4 -21 7 -4 12 -11 13 -15 2 -23 18 -42 40 -47 13 -4 24
-13 24 -21 0 -7 10 -17 23 -20 34 -11 84 -52 90 -75 5 -21 -7 -28 -18 -10 -3
6 -11 10 -16 10 -6 0 -1 -13 11 -30 21 -29 21 -29 1 -41 -24 -16 -17 -39 11
-31 18 4 20 2 16 -16 -4 -14 0 -22 13 -25 11 -3 19 -12 19 -21 0 -9 7 -16 15
-16 18 0 20 -31 3 -48 -15 -15 -42 -16 -32 0 5 8 -2 9 -26 5 -18 -4 -39 -7
-46 -7 -8 0 -14 -5 -14 -11 0 -7 -7 -17 -16 -24 -15 -11 -13 -15 18 -44 25
-22 34 -38 31 -52 -3 -10 -9 -19 -14 -19 -5 0 -9 -4 -9 -10 0 -5 6 -10 14 -10
16 0 29 -27 20 -41 -3 -5 -12 -9 -20 -9 -20 0 -18 -27 4 -40 16 -10 16 -10 0
-20 -22 -13 -24 -40 -3 -40 8 0 15 -4 15 -9 0 -13 -54 -21 -61 -9 -4 6 -12 7
-18 4 -14 -9 -14 -46 0 -46 6 0 8 -9 4 -21 -5 -15 -2 -22 14 -26 12 -3 21 -8
21 -12 0 -10 31 -50 63 -82 16 -16 27 -38 27 -53 0 -21 6 -28 30 -32 17 -4 30
-10 30 -15 0 -5 -6 -8 -12 -7 -8 2 -12 -5 -10 -16 3 -15 -1 -17 -21 -12 -20 5
-26 1 -32 -17 -8 -21 -8 -21 -12 6 -5 31 -9 33 -31 11 -15 -15 -14 -18 8 -36
13 -11 25 -29 25 -41 1 -11 7 -23 13 -25 17 -5 15 -22 -3 -22 -8 0 -15 7 -15
15 0 8 -7 15 -15 15 -10 0 -12 6 -8 18 6 16 6 16 -11 -1 -18 -17 -13 -33 15
-57 3 -3 2 -20 -3 -38 -9 -33 -10 -34 -56 -30 l-47 3 -1 -35 c0 -32 -3 -35
-33 -38 -35 -4 -38 -24 -5 -31 21 -3 54 -30 54 -43 0 -4 -9 -8 -21 -8 -16 0
-19 -4 -14 -22 6 -17 4 -20 -9 -15 -10 4 -16 1 -16 -8 0 -8 5 -15 10 -15 6 0
10 -9 10 -20 0 -13 7 -20 20 -20 11 0 20 -6 20 -14 0 -14 -25 -45 -38 -47 -45
-5 -60 -4 -74 5 -14 8 -22 6 -38 -11 -11 -13 -16 -25 -10 -28 34 -21 -15 -64
-51 -44 -17 9 -23 8 -30 -2 -6 -9 -3 -16 9 -20 9 -3 27 -10 40 -14 15 -5 21
-13 18 -22 -3 -8 -6 -16 -6 -18 0 -6 -85 8 -90 15 -3 3 -13 9 -22 13 -10 3
-18 15 -18 25 0 10 -13 25 -29 35 -39 23 -44 22 -37 -7 4 -18 1 -25 -14 -29
-12 -3 -20 -14 -20 -26 0 -12 -4 -21 -10 -21 -5 0 -10 -7 -10 -15 0 -8 5 -15
11 -15 5 0 8 -4 4 -10 -3 -5 -12 -7 -21 -3 -11 4 -14 0 -12 -18 2 -13 7 -30
11 -36 6 -9 3 -11 -10 -7 -16 5 -16 4 -2 -8 8 -7 18 -23 21 -34 5 -20 3 -21
-23 -14 -33 10 -36 4 -14 -27 15 -21 14 -23 -9 -38 -14 -9 -30 -14 -36 -10
-16 10 -52 -5 -46 -20 3 -9 -2 -12 -15 -10 -16 3 -17 1 -9 -15 14 -26 13 -29
-10 -23 -21 6 -29 -20 -10 -32 6 -4 8 -10 5 -15 -3 -5 4 -11 15 -15 22 -7 26
-21 8 -27 -9 -3 -8 -9 5 -22 21 -21 21 -27 3 -51 -8 -11 -19 -16 -30 -12 -17
7 -66 -11 -66 -24 0 -4 4 -10 10 -14 5 -3 7 -12 3 -20 -3 -8 0 -15 6 -15 6 0
8 -7 5 -15 -4 -9 1 -18 11 -21 12 -5 13 -9 4 -14 -6 -5 -13 -21 -13 -37 -2
-21 -8 -29 -25 -31 -20 -3 -22 -8 -17 -35 3 -17 12 -35 19 -39 9 -6 8 -8 -3
-8 -9 0 -7 -6 8 -16 13 -9 21 -22 18 -29 -3 -8 11 -20 35 -30 21 -10 39 -23
39 -29 -1 -16 -25 -46 -37 -46 -6 0 -21 -6 -34 -13 -31 -16 -38 -72 -10 -86
29 -16 54 -77 41 -100 -5 -11 -10 -29 -10 -40 0 -16 -7 -21 -27 -22 l-28 0 25
-12 c35 -16 52 -34 40 -42 -14 -9 -12 -45 3 -45 6 -1 2 -9 -10 -19 -18 -15
-21 -25 -16 -55 3 -20 1 -36 -4 -36 -5 0 -17 -6 -27 -13 -18 -13 -18 -15 -2
-40 17 -25 17 -26 -3 -39 -27 -16 -26 -24 2 -32 17 -5 19 -8 8 -15 -10 -6 -10
-10 -1 -16 8 -5 -1 -14 -26 -25 -22 -10 -33 -19 -26 -19 20 -2 14 -28 -8 -34
-24 -6 -27 -27 -3 -27 13 0 14 -3 6 -11 -7 -7 -8 -17 -3 -28 5 -9 16 -32 24
-52 9 -23 26 -42 46 -53 30 -15 33 -14 49 3 12 15 21 17 39 10 13 -5 26 -18
29 -28 3 -11 12 -22 20 -25 13 -5 13 -9 2 -23 -15 -17 -13 -17 37 4 6 2 19 -3
28 -12 10 -10 24 -14 36 -10 15 5 20 2 20 -13 0 -30 34 -53 78 -54 22 0 44 2
49 5 5 3 33 8 62 12 29 3 136 19 238 35 102 16 189 27 194 25 11 -8 40 6 33
16 -3 5 9 9 26 9 24 0 34 6 43 28 13 30 40 42 35 16 -6 -31 26 -39 68 -19 28
14 34 20 22 23 -10 2 -18 7 -18 12 0 5 -20 12 -45 16 -29 4 -45 11 -45 21 0
10 -12 13 -45 12 -25 -2 -49 1 -55 7 -8 8 11 10 175 19 17 0 43 6 58 13 16 7
32 12 36 12 4 0 22 11 41 25 19 14 30 25 26 25 -5 0 -3 7 4 15 10 12 7 13 -22
9 -64 -11 -134 -14 -176 -8 -37 5 -41 8 -31 20 9 11 25 14 61 10 28 -3 48 -1
48 5 0 5 10 7 22 4 28 -6 84 8 81 21 -3 11 -69 23 -95 17 -10 -3 -18 -12 -18
-19 0 -20 -40 -17 -56 4 -20 26 -17 33 11 22 16 -6 25 -6 25 0 0 15 -32 28
-75 31 -22 1 -46 7 -53 13 -9 7 -16 6 -22 -4 -6 -10 -16 -11 -40 -4 -17 5 -32
13 -33 18 -2 9 31 12 185 18 43 2 78 6 78 11 0 4 19 7 43 7 23 0 53 6 67 13
17 9 30 10 41 3 19 -11 93 19 84 34 -3 5 -12 7 -20 3 -8 -3 -15 -1 -15 4 0 5
16 15 35 22 48 17 46 35 -2 26 -21 -4 -45 -8 -53 -8 -8 0 -21 -5 -29 -11 -12
-9 -13 -8 -8 7 4 10 7 22 7 27 0 5 9 12 21 15 15 5 17 10 9 20 -8 9 -5 14 11
18 11 3 28 3 36 0 14 -5 13 -8 -3 -20 -14 -10 -14 -13 -3 -13 20 0 69 23 69
33 0 4 10 7 23 8 l22 0 -22 11 c-13 6 -23 14 -23 17 1 15 27 39 41 38 7 -1 14
3 14 8 0 6 -10 10 -22 10 -31 1 -35 7 -23 41 12 33 65 61 85 44 13 -11 57 -1
49 11 -3 5 -14 9 -25 9 -11 0 -19 7 -19 16 0 8 4 13 9 9 5 -3 12 -1 16 5 3 5
21 10 38 10 40 0 59 12 52 31 -3 9 6 21 25 33 24 14 29 21 20 31 -9 11 -6 17
12 27 13 7 28 13 33 13 14 1 52 23 76 43 21 18 26 68 8 74 -9 3 -9 10 0 26 10
19 20 22 82 22 44 0 81 -6 100 -16 24 -12 37 -13 62 -5 19 7 34 8 40 2 6 -6
15 -4 25 5 8 9 24 13 34 11 11 -3 18 -1 16 5 -2 6 -13 13 -24 14 -25 4 -112
15 -144 18 -42 5 -72 17 -128 52 -29 19 -56 34 -60 34 -10 0 -112 107 -112
118 0 5 -9 21 -20 34 -10 14 -24 46 -30 71 -5 25 -15 57 -21 71 -10 20 -9 30
4 50 10 15 13 27 7 31 -16 10 -11 25 8 25 13 0 14 2 3 9 -8 6 -10 14 -5 22 5
8 7 25 5 38 -2 18 1 22 12 18 11 -4 19 4 27 26 8 26 13 29 20 17 5 -8 10 -24
10 -35 0 -12 5 -26 12 -33 9 -9 8 -15 -6 -25 -14 -10 -16 -18 -8 -33 25 -49
33 -72 37 -113 2 -26 10 -48 19 -53 8 -5 18 -24 22 -43 3 -19 12 -35 19 -35 6
0 22 -20 35 -45 13 -25 26 -45 30 -45 4 0 29 -20 56 -45 26 -25 51 -45 54 -45
3 0 12 -6 18 -12 7 -7 23 -13 35 -14 28 -1 51 -7 57 -15 9 -11 80 -18 85 -8 4
5 15 9 25 9 10 0 37 12 59 27 23 15 49 28 58 29 8 2 20 7 26 13 6 6 24 11 40
11 18 0 26 4 21 11 -3 6 2 23 13 37 11 15 22 35 26 45 3 9 13 17 21 17 8 0 26
25 40 55 14 30 29 55 35 55 5 0 7 8 4 19 -3 14 2 20 21 23 29 6 44 -8 28 -24
-13 -13 -4 -40 17 -52 9 -6 33 -9 54 -7 47 3 49 -16 6 -48 -17 -13 -28 -25
-25 -29 4 -3 19 4 36 16 16 12 36 19 44 16 31 -12 43 35 40 156 -3 145 -3 150
-14 150 -5 0 -7 7 -4 15 3 8 -5 25 -20 38 -14 13 -26 31 -26 39 0 9 -7 21 -15
28 -8 7 -15 18 -15 25 0 7 -7 15 -15 19 -8 3 -15 12 -15 21 0 8 -7 15 -15 15
-8 0 -15 7 -15 16 0 15 -37 53 -52 54 -16 0 -118 101 -118 116 0 6 -16 29 -35
49 -24 27 -32 42 -25 50 14 17 3 43 -21 50 -10 4 -19 13 -19 22 0 8 -9 28 -21
44 l-21 30 26 -7 c22 -5 26 -3 26 14 0 12 -9 23 -20 27 -10 3 -30 19 -44 36
-14 16 -27 29 -30 29 -3 0 -16 9 -28 19 -13 11 -33 28 -45 38 -11 10 -44 30
-72 43 -37 19 -50 31 -51 47 0 12 -8 24 -18 27 -10 4 -38 26 -63 51 -24 24
-57 50 -72 56 -18 8 -30 22 -34 40 -3 16 -13 31 -23 34 -10 3 -20 18 -22 34
-5 33 17 33 27 0 4 -10 10 -19 15 -19 11 0 112 -84 166 -138 23 -23 51 -42 62
-42 13 0 22 -9 26 -25 7 -26 20 -32 31 -14 5 7 14 4 26 -7 15 -13 16 -19 7
-25 -9 -6 -10 -11 -2 -19 8 -8 21 -6 48 6 33 16 36 20 30 51 -7 39 5 42 47 12
16 -11 29 -16 29 -10 0 5 -6 14 -13 18 -7 4 -18 20 -24 35 -10 22 -10 30 2 42
13 12 13 16 0 26 -8 6 -19 9 -25 5 -5 -3 -10 1 -10 10 0 8 7 18 15 21 23 9 18
18 -16 31 -17 7 -28 17 -25 22 6 9 -11 49 -25 61 -12 10 -4 55 13 74 20 22 25
47 6 28 -18 -18 -32 -14 -17 4 12 15 11 16 -10 9 -17 -5 -21 -4 -16 4 4 7 2
17 -3 24 -5 7 -12 24 -16 40 -6 25 -5 27 18 21 13 -3 27 -1 31 5 12 20 25 1
19 -27 -4 -20 1 -35 16 -52 l21 -25 -7 25 c-4 14 -7 34 -6 45 2 32 -21 75 -40
75 -10 0 -18 5 -18 10 0 6 -6 10 -14 10 -7 0 -20 7 -27 16 -12 15 -11 16 10 9
16 -5 21 -4 17 4 -4 6 -2 11 3 11 6 0 11 -5 11 -11 0 -5 4 -7 10 -4 17 11 11
25 -15 35 -29 11 -68 83 -60 111 4 10 9 19 13 19 16 0 106 -113 97 -122 -3 -3
8 -17 25 -31 16 -15 30 -33 30 -41 0 -8 14 -19 30 -25 30 -10 42 -43 20 -56
-16 -10 -12 -23 6 -21 19 1 52 -48 53 -79 2 -34 33 -65 59 -59 12 4 22 14 23
23 0 9 2 27 5 40 3 16 -2 28 -15 37 -20 15 -35 54 -19 54 12 0 40 -28 53 -53
5 -11 15 -22 21 -24 19 -6 25 27 9 43 -18 18 -19 59 -4 102 8 24 7 35 -5 55
-9 13 -13 27 -10 30 4 4 2 13 -5 21 -9 11 -9 17 1 27 8 8 13 31 13 51 0 33 3
38 23 38 12 0 22 -4 22 -10 0 -5 7 -10 15 -10 8 0 16 -10 17 -22 0 -13 1 -30
2 -38 1 -8 10 -16 21 -18 16 -2 17 -1 5 7 -17 12 -13 18 15 23 41 7 52 61 19
89 -8 6 -14 24 -14 40 0 15 -4 31 -10 34 -5 3 -10 13 -10 21 0 21 37 17 53 -6
16 -23 27 -16 27 18 0 20 -4 23 -23 18 -23 -5 -23 -4 -19 52 3 31 10 60 16 65
8 5 6 10 -4 17 -13 9 -13 11 0 19 10 7 18 4 28 -10 7 -10 19 -19 26 -19 8 0
21 -12 31 -26 9 -14 19 -23 22 -20 3 3 0 12 -6 20 -10 12 -9 20 4 40 20 30 41
35 25 7 -14 -27 -13 -36 4 -22 11 10 15 8 19 -6 3 -10 5 3 4 29 -2 68 10 69
19 2 4 -32 14 -65 22 -74 14 -13 15 -13 9 3 -3 9 -3 17 2 17 11 0 10 34 -2 42
-13 8 -17 168 -5 168 8 0 15 -25 22 -85 2 -22 6 -49 9 -60 3 -11 6 -27 7 -35
0 -12 3 -11 11 3 6 9 7 26 4 37 -3 11 -3 25 1 32 4 7 7 31 5 53 -2 36 1 43 23
53 15 7 26 20 26 31 0 14 10 21 38 28 20 5 38 14 38 21 1 7 3 15 4 20 1 4 2
10 1 15 0 4 6 7 14 7 16 0 21 -35 6 -44 -5 -3 -7 -27 -6 -53 1 -27 3 -58 4
-70 1 -16 7 -23 22 -23 19 0 21 4 15 31 -3 18 -1 38 4 44 8 9 7 27 -1 59 -10
40 -9 49 5 65 9 10 14 25 11 33 -3 8 1 27 9 42 14 27 15 27 25 8 6 -12 11 -28
11 -36 0 -9 4 -16 9 -16 5 0 11 -9 14 -21 7 -27 27 -15 27 16 0 13 5 27 10 30
6 4 10 16 9 28 -4 41 1 57 16 57 8 0 15 -7 15 -15 0 -9 7 -18 15 -21 12 -5 13
-10 5 -20 -7 -7 -19 -10 -27 -7 -11 4 -14 3 -9 -6 5 -7 19 -16 32 -21 17 -7
24 -17 24 -35 0 -14 7 -28 15 -31 10 -4 13 -13 10 -25 -4 -12 -1 -19 7 -19 15
-1 42 -35 53 -69 5 -16 4 -21 -4 -17 -6 4 -11 2 -11 -3 0 -6 4 -11 8 -11 4 0
24 -15 43 -32 l36 -33 -19 -34 c-21 -37 -18 -74 10 -104 15 -17 14 -20 -15
-45 -22 -19 -29 -31 -24 -42 18 -34 20 -79 5 -95 -12 -12 -13 -19 -4 -30 13
-16 0 -49 -23 -58 -21 -8 -26 -43 -11 -73 11 -20 11 -30 3 -40 -9 -11 -7 -20
6 -40 9 -14 15 -34 12 -45 -3 -11 5 -29 19 -44 13 -14 24 -33 24 -41 0 -7 4
-14 9 -14 11 0 20 -59 10 -65 -4 -3 -1 -29 7 -58 7 -28 14 -53 14 -55 0 -2 -9
0 -20 3 -42 13 -27 -43 36 -140 13 -20 14 -28 4 -40 -10 -12 -10 -15 0 -15 7
0 10 -7 6 -16 -4 -10 3 -23 19 -36 14 -11 25 -26 25 -33 0 -8 9 -17 20 -20 11
-4 19 -13 18 -20 -2 -8 6 -21 17 -29 17 -13 18 -18 7 -35 -15 -25 -4 -28 13
-4 7 9 17 13 23 9 15 -9 15 -49 0 -64 -8 -8 -8 -15 1 -25 9 -12 7 -13 -15 -9
-17 3 -25 1 -21 -6 4 -5 0 -12 -8 -16 -8 -3 -15 -14 -15 -25 0 -14 5 -19 14
-15 17 7 65 -25 66 -43 0 -7 8 -13 19 -13 30 0 45 -25 30 -52 -7 -13 -11 -25
-9 -28 2 -3 -13 -14 -38 -27 -5 -2 16 -39 30 -55 7 -7 19 -21 27 -31 12 -15
12 -17 -3 -11 -9 3 -16 1 -16 -5 0 -6 6 -11 13 -11 6 0 18 -14 26 -31 12 -27
12 -33 0 -40 -8 -5 -18 -9 -23 -9 -5 0 -4 -6 2 -13 6 -7 9 -22 6 -33 -3 -14 6
-26 39 -49 41 -27 44 -32 43 -71 -1 -23 -4 -40 -7 -38 -4 2 -13 -3 -20 -12
-10 -13 -10 -19 0 -36 8 -13 10 -34 6 -60 -6 -32 -4 -39 6 -34 8 3 22 9 31 12
10 3 23 19 30 35 7 16 19 29 26 29 17 0 29 -33 14 -38 -7 -2 -12 -8 -12 -13 0
-6 4 -8 8 -5 13 8 42 -30 31 -41 -6 -6 12 -21 51 -40 33 -17 60 -27 60 -22 0
5 7 9 15 9 8 0 15 -5 15 -12 0 -6 10 -22 21 -34 17 -18 28 -22 51 -17 33 7 51
-10 42 -39 -3 -9 1 -20 9 -25 8 -4 19 -18 25 -29 9 -18 8 -25 -10 -40 -21 -19
-21 -19 -16 3 8 30 -9 40 -30 19 -16 -16 -15 -19 7 -37 13 -11 31 -17 38 -15
8 3 12 2 9 -2 -7 -12 27 -38 82 -62 30 -13 54 -31 60 -46 7 -13 17 -24 23 -24
6 0 9 -7 5 -15 -3 -8 -1 -26 4 -39 7 -19 14 -23 31 -19 14 4 26 0 33 -9 15
-20 90 -42 94 -28 2 6 10 10 18 10 8 0 14 6 14 13 0 6 9 23 19 36 l19 25 59
-18 c32 -10 72 -22 88 -28 17 -5 41 -11 54 -12 14 -2 30 -11 37 -21 7 -10 20
-15 28 -12 16 6 66 -13 66 -26 0 -5 4 -6 8 -3 5 3 22 2 38 -3 16 -4 44 -4 63
0 27 6 41 3 63 -12 15 -11 42 -22 59 -24 17 -3 40 -7 51 -11 18 -5 18 -7 4
-23 -20 -22 -20 -35 0 -27 8 3 12 2 9 -4 -3 -6 -13 -10 -21 -10 -9 0 -13 -5
-10 -12 3 -7 9 -21 12 -30 4 -10 15 -18 26 -18 17 0 18 -3 8 -15 -10 -12 -10
-15 4 -15 9 0 16 5 16 10 0 6 5 10 10 10 6 0 10 -10 10 -22 0 -17 3 -19 9 -9
5 8 14 10 21 6 7 -4 15 -2 19 4 9 14 163 -32 182 -55 17 -21 9 -24 -33 -15
-24 6 -40 5 -48 -3 -8 -8 -13 -8 -18 0 -10 16 -48 23 -63 12 -11 -7 -11 -11
-1 -15 6 -2 12 -11 12 -18 0 -7 12 -18 28 -24 15 -7 39 -19 54 -27 15 -8 52
-15 83 -15 30 -1 55 -5 55 -10 0 -13 44 -54 54 -51 5 2 15 -6 23 -18 8 -11 19
-20 25 -20 6 0 19 -7 29 -16 20 -18 148 -21 193 -5 40 16 58 14 54 -6 -2 -10
-11 -17 -20 -15 -9 1 -23 -7 -31 -18 -9 -13 -20 -18 -31 -14 -9 3 -16 2 -16
-3 0 -10 -123 -8 -157 2 -32 10 -30 -12 2 -27 30 -13 35 -57 8 -64 -25 -7 -24
-62 0 -76 35 -19 81 -28 119 -22 32 6 37 10 33 25 -6 17 -1 19 38 19 31 0 49
-6 62 -20 16 -17 16 -20 2 -26 -8 -3 -25 -1 -36 5 -13 7 -22 8 -26 1 -3 -5
-15 -10 -25 -10 -10 0 -25 -8 -32 -19 -7 -10 -17 -19 -23 -19 -5 0 -11 -5 -13
-11 -2 -5 22 -17 52 -26 65 -19 72 -31 19 -32 -21 0 -51 -4 -66 -8 -15 -4 -27
-4 -26 1 4 23 -3 26 -21 9 -19 -17 -19 -19 -4 -37 10 -10 26 -18 37 -18 11 0
25 -7 32 -16 7 -10 32 -19 63 -22 29 -2 52 -9 52 -14 0 -5 9 -6 21 -3 33 11
159 -5 159 -20 0 -9 -15 -11 -56 -8 -54 4 -55 4 -37 -14 23 -23 67 -40 106
-42 15 0 37 -6 48 -12 12 -6 64 -12 117 -13 54 -1 106 -7 117 -13 40 -21 75
-24 75 -8 0 8 5 15 10 15 6 0 10 -4 10 -9 0 -4 11 -6 25 -3 14 2 39 -2 57 -9
20 -8 70 -13 137 -12 58 1 109 -1 115 -4 5 -3 34 -5 65 -5 31 1 66 2 77 2 12
0 27 7 34 15 15 18 22 68 9 60 -5 -4 -15 -2 -23 2 -21 12 -2 56 21 49 18 -6
70 9 111 32 16 9 21 19 17 31 -4 12 1 21 12 25 15 6 15 8 3 16 -12 8 -12 10
-1 10 15 0 56 48 56 66 0 6 11 21 25 33 21 17 22 20 8 21 -10 0 -18 6 -18 13
0 7 -9 18 -20 25 -23 14 -27 42 -6 42 8 0 17 7 20 16 7 19 -20 54 -41 54 -16
0 -16 5 -3 30 12 22 3 50 -16 50 -21 0 -17 21 5 27 23 6 84 80 76 92 -3 5 -1
12 5 16 5 3 10 19 10 35 0 16 5 32 11 35 5 4 8 12 6 18 -3 7 4 21 14 32 17 19
17 23 3 43 -8 12 -23 22 -32 22 -16 1 -16 1 1 11 22 13 22 24 -3 49 -17 17
-17 20 -4 20 12 0 15 7 12 25 -3 13 -1 26 4 27 5 2 5 15 -1 31 -9 22 -7 33 4
51 18 27 11 56 -13 56 -13 0 -11 4 6 16 28 20 20 34 -21 35 l-32 1 27 9 c44
17 42 36 -5 44 l-42 6 29 24 c19 15 27 29 23 39 -4 9 -2 16 3 16 17 0 11 25
-10 43 -11 9 -27 17 -35 17 -8 0 -15 5 -15 10 0 6 5 10 11 10 5 0 8 4 5 9 -4
5 -1 11 6 13 10 4 10 10 0 32 -17 37 -15 54 6 59 16 3 -8 12 -93 32 -19 5 -25
9 -15 13 8 3 17 8 20 12 3 4 14 12 25 18 19 10 18 12 -12 18 -18 3 -30 10 -27
15 10 17 -7 47 -31 53 -18 5 -25 13 -25 31 0 14 -5 25 -11 25 -6 0 -9 9 -6 20
3 14 -3 30 -19 47 -13 14 -24 32 -24 39 0 15 -69 54 -95 54 -8 0 -25 10 -37
22 -14 14 -16 19 -6 15 9 -3 19 0 22 8 3 9 0 12 -9 9 -10 -4 -15 5 -17 33 -2
29 -7 37 -20 35 -9 -1 -19 2 -23 8 -3 5 -14 10 -23 10 -21 0 -58 40 -54 58 2
7 -10 15 -27 18 -35 7 -51 53 -21 61 24 6 33 63 10 63 -9 0 -25 9 -37 19 -20
19 -20 19 -37 -1 -13 -15 -21 -17 -29 -9 -8 8 0 20 26 46 41 40 48 60 17 50
-21 -7 -28 9 -9 20 6 4 8 13 5 21 -4 9 4 18 19 24 15 6 23 15 19 23 -3 8 2 17
11 21 9 3 14 10 10 15 -3 6 -12 8 -19 5 -9 -3 -13 1 -13 13 2 15 -4 17 -36 15
-27 -3 -39 1 -43 13 -8 20 -3 26 32 28 25 2 49 27 26 27 -16 0 -23 31 -11 47
9 11 7 19 -12 39 -23 24 -23 25 -5 57 10 17 25 37 32 43 7 5 16 22 19 37 7 26
6 27 -26 22 -19 -3 -28 -3 -21 1 7 3 12 24 12 49 0 35 -4 44 -22 48 -13 4 -26
0 -33 -10 -8 -11 -17 -13 -26 -7 -8 5 -23 9 -33 9 -11 0 -21 6 -23 13 -3 6 2
12 11 12 12 0 14 5 6 24 -10 27 -5 36 21 36 21 0 43 35 35 56 -3 8 1 14 8 14
19 0 29 46 16 70 -6 11 -18 20 -26 20 -8 0 -13 4 -9 9 6 11 44 9 62 -2 20 -12
36 30 24 63 -9 26 -7 32 16 50 14 11 30 20 34 20 5 0 9 6 9 14 0 8 14 23 30
33 17 10 28 23 26 30 -3 7 3 17 13 23 14 7 20 6 25 -6 5 -13 9 -13 31 2 l26
17 -21 14 c-12 9 -31 12 -45 9 -19 -5 -22 -3 -18 13 3 11 -2 21 -13 25 -23 9
-37 -15 -17 -29 9 -7 14 -17 12 -23 -7 -20 -55 11 -51 32 3 15 -1 18 -20 12
-13 -3 -32 -6 -42 -6 -20 0 -20 0 0 -15 16 -13 17 -16 4 -25 -21 -14 -37 -12
-44 5 -3 8 -1 15 4 15 6 0 10 7 10 15 0 24 -19 18 -32 -10 -10 -21 -8 -27 8
-39 17 -13 17 -14 -7 -9 -19 3 -28 -1 -35 -18 -11 -23 -11 -23 -16 -2 -4 14 2
30 15 44 18 19 19 22 4 31 -26 14 -20 36 11 40 16 2 27 9 26 18 0 8 8 23 18
33 10 9 18 14 18 11 0 -3 14 6 31 20 33 28 55 33 62 14 2 -7 8 -9 13 -5 4 4
-9 24 -31 44 -33 31 -36 36 -22 45 29 15 21 37 -12 33 -22 -3 -30 1 -34 14 -3
12 -18 21 -43 25 -22 3 -48 7 -59 9 -11 2 -28 -3 -37 -11 -21 -17 -78 -7 -78
14 0 20 -12 18 -61 -11 -51 -29 -74 -32 -65 -10 8 23 -34 37 -55 18 -11 -9
-42 -15 -83 -16 -36 -1 -66 -5 -66 -9 0 -4 -7 -5 -15 -1 -23 8 -12 28 16 28
19 0 24 5 24 27 1 15 4 30 7 34 4 3 4 12 1 20 -3 8 1 14 10 14 9 0 20 7 25 16
8 14 12 14 30 3 31 -19 54 2 39 36 -8 15 -14 19 -19 12 -4 -6 -17 -12 -30 -13
-13 0 -38 -4 -57 -8 -31 -8 -37 -5 -70 33 -34 39 -39 41 -103 44 -53 3 -68 1
-68 -9 0 -8 -9 -14 -19 -14 -10 0 -22 -8 -25 -17 -10 -24 -22 -5 -30 45 -7 47
0 51 34 22 29 -25 33 -25 25 -1 -3 10 -3 24 0 32 6 17 57 21 67 6 11 -18 31 7
29 37 -3 56 -4 58 -25 51 -60 -17 -71 -16 -84 4 -11 19 -10 21 10 22 13 1 29
1 36 0 8 -1 16 7 19 18 3 13 14 21 27 21 34 0 65 27 59 50 -6 22 -18 26 -28
10 -3 -5 -17 -10 -29 -10 -32 0 -29 25 7 62 27 29 36 58 17 58 -5 0 -10 -5
-10 -11 0 -6 -9 -8 -22 -3 -31 9 -34 12 -20 26 9 9 12 9 12 0 0 -17 18 -15 36
3 18 18 24 18 44 4 11 -8 12 -12 3 -16 -15 -6 -17 -43 -3 -43 17 0 11 -28 -7
-33 -17 -4 -17 -5 0 -6 11 -1 17 -9 17 -26 0 -20 5 -25 25 -25 14 0 25 5 25
11 0 6 -7 9 -15 5 -17 -6 -21 19 -5 29 18 11 11 47 -10 52 -26 7 -26 29 -1 36
23 6 31 0 31 -24 0 -39 41 -24 55 21 7 21 6 23 -7 13 -8 -7 -18 -10 -21 -6
-10 10 -8 42 3 56 57 71 59 73 74 54 11 -15 15 -15 25 -3 9 11 19 12 46 3 34
-10 60 -3 39 11 -14 9 -10 63 7 90 12 20 15 20 31 5 10 -9 18 -11 18 -6 0 6
-7 16 -15 23 -17 14 -10 60 12 73 12 8 12 12 -2 27 -9 10 -14 24 -10 29 3 6
-1 18 -9 26 -14 14 -20 13 -58 -12 -24 -15 -44 -31 -46 -35 -2 -5 -12 -8 -22
-8 -12 0 -21 -10 -25 -29 -5 -23 -13 -30 -42 -36 -22 -4 -37 -13 -40 -25 -6
-24 -32 -34 -49 -19 -11 9 -8 17 16 41 17 16 30 34 30 39 0 14 35 46 59 54 12
3 21 12 21 20 0 7 22 33 50 58 41 37 47 47 36 56 -10 8 -16 9 -21 1 -3 -6 -11
-8 -16 -4 -15 9 10 34 27 27 8 -3 21 0 29 7 10 9 15 9 15 1 0 -20 16 -12 28
14 8 16 23 28 42 31 32 7 32 24 -1 24 -10 0 -19 5 -19 12 0 18 41 57 54 52 7
-3 18 6 26 20 7 14 22 26 33 28 11 2 25 11 31 20 8 14 6 21 -9 33 -11 9 -15
14 -8 10 7 -3 23 5 35 17 13 13 26 22 29 21 4 -1 5 7 2 17 -4 14 0 20 10 20 9
0 20 7 25 16 10 18 32 11 32 -9 0 -7 13 -11 32 -10 18 1 47 2 63 2 l30 1 -29
25 c-26 22 -45 30 -68 27 -3 -1 -11 5 -18 13 -9 11 -17 12 -31 4 -15 -7 -19
-6 -19 6 0 9 9 15 22 15 12 0 32 10 45 22 l23 21 0 -31 c0 -23 5 -32 16 -32
11 0 15 6 12 18 -3 12 2 24 13 31 11 6 19 19 19 29 1 13 3 12 13 -6 7 -12 16
-20 20 -16 3 4 20 1 37 -6 21 -9 30 -19 30 -36 0 -23 0 -23 -30 -6 -27 15 -32
15 -40 2 -8 -12 -12 -12 -18 -2 -7 10 -11 10 -21 -2 -18 -21 -5 -36 30 -36 27
0 33 -6 54 -52 14 -32 19 -57 14 -63 -16 -17 -9 -25 16 -19 21 5 25 3 25 -14
0 -11 3 -29 7 -39 6 -17 6 -17 -14 0 -14 12 -29 16 -47 11 -28 -7 -30 -11 -17
-32 5 -9 35 -15 86 -16 58 -2 81 -7 90 -19 10 -14 17 -15 42 -5 42 16 63 5 63
-31 0 -16 -4 -33 -10 -36 -15 -10 -12 -25 8 -32 9 -3 25 -13 35 -21 16 -14 17
-14 15 9 -3 23 0 24 54 24 32 0 58 -4 58 -8 0 -5 16 -7 35 -5 19 2 33 -1 32
-7 -1 -5 -15 -9 -31 -7 -16 1 -33 -3 -37 -10 -6 -9 -11 -9 -23 1 -11 9 -16 10
-16 2 0 -7 -9 -9 -24 -5 -23 5 -25 2 -29 -33 -3 -33 -5 -35 -12 -15 -11 32
-28 27 -20 -7 5 -24 2 -29 -16 -34 -18 -5 -20 -9 -11 -20 9 -11 9 -22 -3 -50
-14 -33 -18 -36 -39 -27 -26 9 -37 2 -49 -32 -4 -13 -17 -18 -42 -18 -19 0
-35 -4 -35 -10 0 -12 48 -60 60 -60 6 0 10 -9 10 -19 0 -12 -10 -21 -27 -26
-26 -6 -27 -8 -10 -20 12 -8 14 -15 8 -20 -20 -12 -11 -35 17 -47 15 -6 31
-10 35 -9 4 0 17 -4 28 -10 22 -12 49 -18 94 -23 38 -5 65 -16 65 -27 0 -18
18 -9 23 12 8 29 51 22 55 -9 3 -18 -1 -23 -15 -21 -10 1 -29 -3 -43 -8 -26
-11 -60 -1 -60 17 0 19 -110 4 -133 -17 -16 -15 -29 -18 -47 -13 -14 4 -34 4
-45 0 -18 -6 -18 -7 -2 -16 13 -8 16 -17 11 -43 -6 -29 -9 -32 -19 -18 -15 21
-25 12 -25 -22 0 -25 -31 -56 -44 -44 -11 11 -6 22 8 17 10 -4 12 2 8 21 -3
15 -14 30 -27 35 -13 5 -26 13 -29 18 -11 17 -56 1 -56 -20 0 -16 5 -19 23
-15 27 7 44 -2 44 -24 0 -11 -7 -15 -19 -11 -10 2 -18 -1 -18 -7 0 -6 7 -12
15 -12 23 -2 28 -4 51 -17 12 -6 24 -9 27 -5 8 7 37 -22 37 -36 0 -6 5 -11 11
-11 6 0 8 9 4 20 -3 11 -2 20 4 20 14 0 43 -44 31 -48 -6 -2 -5 -11 2 -25 7
-12 11 -26 9 -32 -1 -5 -4 -31 -5 -57 -3 -43 -1 -46 16 -37 14 7 18 6 18 -6 0
-8 3 -14 8 -14 47 8 76 -12 68 -45 -4 -15 -11 -24 -16 -21 -6 3 -18 1 -27 -4
-15 -8 -15 -11 -3 -12 8 -1 22 -2 30 -3 8 -1 20 2 27 7 14 10 33 -21 33 -52 0
-12 5 -21 11 -21 6 0 9 -10 7 -22 -2 -16 -9 -22 -20 -20 -21 3 -22 -2 -8 -29
9 -16 7 -21 -16 -29 -25 -10 -26 -12 -10 -29 15 -16 15 -19 1 -31 -8 -7 -15
-18 -15 -24 0 -6 7 -3 14 7 7 9 17 17 21 17 5 0 17 8 28 18 19 16 19 16 13 -5
-6 -19 -3 -23 13 -23 30 0 51 -11 51 -26 0 -8 7 -14 15 -14 11 0 14 7 10 23
-4 15 -1 28 9 36 9 8 16 26 16 42 0 15 5 31 10 34 6 3 10 17 10 31 0 13 4 24
9 24 5 0 9 11 9 25 0 19 -5 24 -17 20 -14 -4 -16 2 -15 37 1 24 7 56 13 71 18
46 17 47 -26 51 -7 1 -13 5 -13 9 -1 11 57 77 68 77 5 0 8 17 7 38 -1 20 5 57
13 82 11 33 11 49 3 62 -8 13 -7 27 4 55 20 51 34 200 21 213 -7 7 -6 17 2 31
12 18 11 21 -7 26 -26 7 -27 19 -3 32 15 9 15 10 1 11 -21 0 -31 24 -23 56 4
14 2 24 -5 24 -14 0 -2 31 18 48 14 11 14 13 -1 26 -22 16 -22 25 -2 47 14 16
14 20 -2 44 -16 25 -16 28 -1 54 18 31 14 41 -17 41 -20 1 -20 2 -3 14 9 7 17
18 17 24 0 6 -8 18 -17 28 -19 19 -23 32 -14 49 3 6 -1 4 -9 -5 -9 -10 -15
-32 -14 -53 1 -26 -2 -37 -12 -37 -8 0 -14 -6 -14 -14 0 -11 -12 -14 -52 -12
-55 3 -69 15 -43 36 8 7 15 9 15 6 0 -4 9 -2 19 4 13 7 22 7 26 0 10 -16 22
-12 28 9 3 12 -1 22 -9 25 -8 3 -14 12 -14 21 0 8 -7 15 -15 15 -8 0 -15 2
-15 5 0 15 74 105 87 105 10 0 13 6 9 16 -8 21 21 54 47 54 16 0 18 5 13 28
-5 18 -4 22 3 13 5 -8 16 -11 25 -8 17 7 20 37 10 99 -6 36 -7 37 -30 21 -21
-14 -24 -14 -24 0 0 8 13 20 29 25 32 11 33 26 5 89 -8 17 -14 41 -14 53 0 23
-12 75 -32 139 -17 55 -36 155 -32 166 3 6 -2 72 -10 148 -12 114 -20 149 -47
209 -37 82 -51 98 -90 98 -21 0 -42 -15 -86 -61z m-6653 -199 c0 -5 -4 -10
-10 -10 -5 0 -10 5 -10 10 0 6 5 10 10 10 6 0 10 -4 10 -10z m-33 -96 c-9 -9
-28 6 -21 18 4 6 10 6 17 -1 6 -6 8 -13 4 -17z m237 -250 c16 4 26 1 30 -9 7
-19 -5 -25 -43 -20 -40 5 -62 22 -54 41 5 13 8 13 24 -2 12 -11 27 -14 43 -10z
m-209 -25 c-10 -15 -25 -10 -19 6 4 8 10 12 15 9 5 -3 7 -10 4 -15z m210 -49
c3 -5 -1 -10 -9 -10 -9 0 -16 5 -16 10 0 6 4 10 9 10 6 0 13 -4 16 -10z m6735
-125 c0 -17 -6 -25 -17 -25 -13 0 -14 -3 -5 -12 20 -20 14 -27 -13 -15 -32 15
-32 30 1 56 33 26 34 26 34 -4z m-6503 -53 c23 -12 47 -31 53 -42 14 -26 -3
-27 -29 -1 -11 11 -37 25 -58 31 -21 6 -49 17 -63 24 -24 14 -24 14 15 12 22
-1 59 -12 82 -24z m5947 3 c11 -5 45 -3 78 4 32 6 63 9 68 6 11 -7 -21 -65
-37 -65 -6 0 -20 -11 -31 -25 -11 -14 -25 -25 -32 -25 -9 0 -9 4 1 16 11 14
10 18 -5 29 -10 8 -15 19 -11 25 5 9 1 10 -13 6 -11 -4 -23 -2 -27 4 -3 5 -17
10 -30 10 -22 0 -40 12 -30 21 6 7 47 3 69 -6z m396 -5 c0 -13 -28 -25 -38
-16 -3 4 0 11 8 16 20 13 30 12 30 0z m-6390 -44 c0 -2 -7 -9 -15 -16 -12 -10
-15 -10 -15 4 0 9 7 16 15 16 8 0 15 -2 15 -4z m6020 -28 c0 -5 0 -15 0 -23 0
-16 -18 -19 -38 -7 -18 12 -5 39 19 38 10 -1 19 -4 19 -8z m495 2 c-3 -5 -12
-10 -18 -10 -7 0 -6 4 3 10 19 12 23 12 15 0z m19 -68 c-4 -18 -13 -32 -21
-32 -10 0 -12 7 -8 23 4 12 9 30 12 41 9 31 24 2 17 -32z m-104 -137 c0 -8 -7
-15 -16 -15 -8 0 -12 -4 -9 -10 3 -5 -1 -10 -9 -10 -25 0 -19 38 7 43 12 2 23
5 25 6 1 0 2 -6 2 -14z m-6890 -110 c0 -5 -5 -3 -10 5 -5 8 -10 20 -10 25 0 6
5 3 10 -5 5 -8 10 -19 10 -25z m105 25 c3 -5 1 -10 -4 -10 -6 0 -11 5 -11 10
0 6 2 10 4 10 3 0 8 -4 11 -10z m6665 -170 c0 -5 -8 -10 -17 -10 -15 0 -16 2
-3 10 19 12 20 12 20 0z m-946 -74 c-6 -16 -24 -23 -24 -8 0 10 22 33 27 28 2
-2 1 -11 -3 -20z m-4967 -8 c-3 -8 -6 -5 -6 6 -1 11 2 17 5 13 3 -3 4 -12 1
-19z m6080 -30 c-3 -8 -6 -5 -6 6 -1 11 2 17 5 13 3 -3 4 -12 1 -19z m-57 -8
c0 -5 -4 -10 -9 -10 -6 0 -13 5 -16 10 -3 6 1 10 9 10 9 0 16 -4 16 -10z
m-895 -90 c-3 -5 -14 -10 -23 -10 -15 0 -15 2 -2 10 20 13 33 13 25 0z m-278
-147 c0 -22 -25 -42 -52 -43 -16 0 -13 5 15 30 19 16 35 29 36 30 0 0 1 -8 1
-17z m1013 -13 c0 -5 -5 -10 -11 -10 -5 0 -7 5 -4 10 3 6 8 10 11 10 2 0 4 -4
4 -10z m-5380 -100 c0 -5 -4 -10 -10 -10 -5 0 -10 5 -10 10 0 6 5 10 10 10 6
0 10 -4 10 -10z m35 -111 c10 -15 -15 -20 -30 -5 -8 8 -15 17 -15 19 0 8 40
-4 45 -14z m145 1 c0 -5 -2 -10 -4 -10 -3 0 -8 5 -11 10 -3 6 -1 10 4 10 6 0
11 -4 11 -10z m4066 -26 c-3 -9 -6 -20 -6 -25 0 -4 -6 -6 -14 -3 -8 3 -17 1
-21 -5 -9 -16 -24 -13 -21 4 3 18 35 44 55 45 8 0 11 -6 7 -16z m-4180 -85 c5
-9 -1 -10 -22 -5 -37 10 -36 8 -22 38 l12 25 13 -23 c6 -13 15 -29 19 -35z
m4088 -6 c4 -5 13 -8 19 -8 21 0 19 -33 -3 -45 -20 -11 -21 -10 -15 9 4 14 1
23 -9 27 -9 3 -16 10 -16 15 0 11 14 12 24 2z m1106 -33 c0 -5 -4 -10 -10 -10
-5 0 -10 5 -10 10 0 6 5 10 10 10 6 0 10 -4 10 -10z m-1137 -25 c-6 -17 -25
-15 -31 3 -2 7 5 12 17 12 14 0 19 -5 14 -15z m84 -61 c1 -5 -2 -16 -7 -24
-12 -20 -35 2 -26 25 6 17 27 16 33 -1z m-2671 -8 c3 -8 2 -22 -3 -30 -13 -23
-37 -4 -28 23 7 24 23 28 31 7z m4048 -10 c-7 -17 -34 -22 -34 -6 0 6 7 10 15
10 8 0 15 5 15 12 0 6 2 9 5 6 3 -3 3 -13 -1 -22z m-5819 -126 c3 -5 -1 -10
-10 -10 -9 0 -13 5 -10 10 3 6 8 10 10 10 2 0 7 -4 10 -10z m4595 -45 c8 -9 8
-15 2 -15 -6 0 -17 -3 -26 -6 -12 -4 -16 0 -16 15 0 24 22 28 40 6z m-4725
-16 c11 -17 -1 -21 -15 -4 -8 9 -8 15 -2 15 6 0 14 -5 17 -11z m2155 -43 c0
-2 -3 -11 -6 -20 -9 -23 -24 -20 -24 4 0 11 7 20 15 20 8 0 15 -2 15 -4z
m3690 -12 c0 -17 -22 -14 -28 4 -2 7 3 12 12 12 9 0 16 -7 16 -16z m-6630 -73
c0 -12 -20 -25 -27 -18 -7 7 6 27 18 27 5 0 9 -4 9 -9z m6668 -33 c17 -17 15
-38 -5 -60 -36 -40 -63 -8 -35 42 19 33 23 35 40 18z m-5278 -88 c0 -9 -46 6
-64 21 -4 4 -2 14 5 23 13 14 16 13 37 -10 12 -14 22 -29 22 -34z m5305 -20
c3 -5 1 -10 -4 -10 -6 0 -11 5 -11 10 0 6 2 10 4 10 3 0 8 -4 11 -10z m-1385
-10 c0 -5 -4 -10 -10 -10 -5 0 -10 5 -10 10 0 6 5 10 10 10 6 0 10 -4 10 -10z
m780 -15 c-7 -8 -17 -15 -22 -15 -6 0 -5 7 2 15 7 8 17 15 22 15 6 0 5 -7 -2
-15z m44 6 c3 -5 -1 -14 -9 -21 -13 -10 -15 -9 -15 9 0 21 14 28 24 12z m66
-11 c0 -5 -2 -10 -4 -10 -3 0 -8 5 -11 10 -3 6 -1 10 4 10 6 0 11 -4 11 -10z
m-4687 -121 c-1 -13 1 -18 3 -11 15 35 54 -11 54 -64 0 -31 -27 -30 -44 1 -5
11 -18 32 -28 48 -11 16 -14 27 -7 27 6 0 8 7 5 16 -4 10 -1 14 6 11 7 -2 12
-15 11 -28z m1424 -53 c-7 -15 -16 -21 -21 -16 -6 6 -4 15 4 25 19 23 29 18
17 -9z m-2687 -76 c0 -5 -2 -10 -4 -10 -3 0 -8 5 -11 10 -3 6 -1 10 4 10 6 0
11 -4 11 -10z m1556 -105 c-4 -20 -10 -34 -14 -30 -10 9 -9 39 2 46 4 4 3 17
-4 30 -12 23 -11 23 5 7 14 -12 16 -25 11 -53z m158 -46 c-3 -5 -10 -7 -15 -3
-5 3 -7 10 -3 15 3 5 10 7 15 3 5 -3 7 -10 3 -15z m-453 -36 c-12 -20 -14 -14
-5 12 4 9 9 14 11 11 3 -2 0 -13 -6 -23z m117 -158 c-7 -8 -38 23 -38 38 0 6
10 2 22 -10 12 -13 19 -25 16 -28z m-58 14 c0 -6 -4 -7 -10 -4 -5 3 -10 11
-10 16 0 6 5 7 10 4 6 -3 10 -11 10 -16z m-601 -152 c12 -16 11 -17 -20 -13
-19 3 -40 5 -46 5 -7 1 -13 6 -13 12 0 7 12 10 30 7 17 -3 30 0 30 5 0 6 1 8
3 6 1 -2 9 -12 16 -22z m665 7 c20 -19 11 -40 -10 -23 -13 10 -20 39 -10 39 3
0 12 -7 20 -16z m-1410 -49 c-4 -8 -10 -12 -15 -9 -14 8 -10 24 6 24 9 0 12
-6 9 -15z m3 -57 c-3 -8 -6 -5 -6 6 -1 11 2 17 5 13 3 -3 4 -12 1 -19z m40 8
c-3 -7 0 -19 6 -25 8 -8 7 -11 -4 -11 -24 0 -29 10 -16 31 14 22 21 25 14 5z
m5843 -106 c0 -5 -7 -10 -16 -10 -8 0 -12 5 -9 10 3 6 10 10 16 10 5 0 9 -4 9
-10z m-4704 -55 c23 -17 34 -21 48 -13 22 13 33 3 17 -16 -15 -18 -6 -36 18
-36 11 0 29 -8 41 -18 19 -15 22 -24 15 -48 l-9 -29 -4 30 c-5 38 -19 54 -28
31 -5 -13 -9 -14 -20 -5 -8 6 -14 8 -14 3 0 -5 -10 1 -22 13 -56 53 -80 73
-87 73 -12 0 -23 29 -15 41 6 10 15 6 60 -26z m4641 -37 c-3 -8 -6 -5 -6 6 -1
11 2 17 5 13 3 -3 4 -12 1 -19z m-2907 -40 c0 -5 -7 -8 -15 -8 -17 0 -18 2 -9
25 5 13 8 14 15 3 5 -7 9 -16 9 -20z m-1493 -65 c35 -23 14 -37 -29 -19 -45
19 -62 52 -22 42 14 -4 37 -14 51 -23z m53 -43 c0 -5 -4 -10 -10 -10 -5 0 -10
5 -10 10 0 6 5 10 10 10 6 0 10 -4 10 -10z m-1510 -31 c0 -5 -4 -9 -10 -9 -5
0 -10 7 -10 16 0 8 5 12 10 9 6 -3 10 -10 10 -16z m3077 4 c2 -6 -5 -13 -17
-16 -12 -3 -20 0 -20 7 0 26 29 33 37 9z m-3182 -193 c3 -5 1 -10 -4 -10 -6 0
-11 5 -11 10 0 6 2 10 4 10 3 0 8 -4 11 -10z m3195 -59 c0 -6 -4 -13 -10 -16
-5 -3 -10 1 -10 9 0 9 5 16 10 16 6 0 10 -4 10 -9z m-1678 -153 c5 -14 7 -14
76 -16 35 -2 45 -6 49 -22 4 -15 11 -18 28 -14 30 7 42 -22 19 -47 -10 -11
-21 -19 -26 -19 -5 0 -16 -7 -25 -15 -8 -8 -19 -13 -24 -9 -6 3 -17 0 -25 -7
-21 -17 -109 -4 -141 21 -14 11 -32 20 -39 20 -8 0 -14 4 -14 10 0 13 34 30
63 30 23 0 25 3 21 40 -3 34 -1 40 15 40 11 0 21 -6 23 -12z m-1668 -19 c-3
-5 -10 -7 -15 -3 -5 3 -7 10 -3 15 3 5 10 7 15 3 5 -3 7 -10 3 -15z m-267 -71
c-3 -8 -6 -5 -6 6 -1 11 2 17 5 13 3 -3 4 -12 1 -19z m83 7 c0 -9 -6 -12 -15
-9 -8 4 -15 10 -15 15 0 5 7 9 15 9 8 0 15 -7 15 -15z m4813 -50 c28 -4 37
-10 33 -21 -7 -19 6 -18 43 3 30 18 54 12 33 -9 -8 -8 -8 -17 -1 -31 9 -15 8
-18 -3 -15 -7 3 -31 -4 -53 -16 -27 -14 -59 -21 -100 -21 -106 0 -164 45 -90
70 17 5 38 20 49 33 10 13 25 21 35 18 9 -2 33 -7 54 -11z m-903 -3 c0 -5 -7
-17 -15 -28 -14 -18 -14 -18 -15 9 0 17 5 27 15 27 8 0 15 -4 15 -8z m-2694
-146 c2 -16 -3 -40 -10 -54 -12 -22 -14 -23 -29 -7 -9 9 -17 29 -17 44 0 54
50 69 56 17z m4090 -33 c22 -14 25 -22 20 -53 -5 -29 -2 -41 14 -55 19 -17 19
-19 3 -38 -13 -13 -18 -37 -19 -78 -1 -32 -6 -64 -11 -71 -6 -7 -14 -24 -18
-38 -15 -48 -76 -119 -102 -120 -7 0 -13 -4 -13 -10 0 -5 -31 -25 -68 -44 -75
-38 -212 -61 -212 -36 0 7 6 10 13 7 7 -3 18 3 25 13 6 10 29 20 56 24 27 4
46 13 46 20 0 16 54 56 75 56 23 0 58 36 52 54 -3 8 7 34 22 58 15 23 28 48
29 53 1 11 39 120 52 150 4 11 11 29 15 40 5 16 8 17 15 5 6 -8 10 -11 10 -6
0 5 -6 17 -14 25 -15 18 -31 61 -21 61 3 0 17 -8 31 -17z m-4076 -82 c0 -5 -9
-7 -20 -4 -11 3 -20 7 -20 9 0 2 9 4 20 4 11 0 20 -4 20 -9z m3220 -77 c0 -8
-7 -17 -15 -20 -14 -6 -13 -8 2 -19 15 -11 15 -15 4 -29 -11 -13 -11 -22 0
-48 7 -18 19 -37 26 -41 7 -4 13 -15 13 -23 0 -11 6 -13 19 -9 15 4 25 -2 38
-22 10 -15 24 -33 32 -39 8 -6 11 -16 7 -23 -4 -6 0 -14 8 -17 9 -3 16 -12 16
-20 0 -7 6 -11 14 -8 9 3 17 -3 21 -15 5 -17 9 -19 31 -9 29 14 35 9 38 -31 2
-34 -5 -39 -27 -17 -8 9 -19 11 -27 6 -8 -5 -22 -3 -34 5 -11 8 -29 12 -41 9
-13 -3 -27 2 -39 15 -11 12 -27 21 -36 21 -9 0 -26 9 -38 21 -12 11 -27 17
-33 13 -7 -4 -9 3 -7 17 2 14 -6 34 -18 48 -18 19 -25 21 -43 12 -13 -7 -21
-8 -21 -2 0 6 9 15 20 21 26 14 25 27 -1 49 l-21 17 21 1 c12 1 21 -4 21 -11
0 -21 29 -41 41 -29 8 8 5 14 -9 22 -11 6 -22 23 -24 38 -2 16 -9 28 -18 29
-34 2 -40 4 -40 15 0 5 4 7 10 4 6 -4 7 6 3 26 -5 28 -4 31 12 26 13 -5 16 -3
11 8 -3 9 0 15 10 15 9 0 14 6 11 13 -2 6 0 20 5 30 9 17 11 17 34 -8 13 -14
24 -33 24 -41z m-2137 41 c-3 -9 -8 -14 -10 -11 -3 3 -2 9 2 15 9 16 15 13 8
-4z m3151 -50 c3 -9 0 -15 -9 -15 -16 0 -27 14 -18 24 10 10 21 7 27 -9z
m-1164 -95 c0 -5 -9 -10 -20 -10 -11 0 -20 5 -20 10 0 6 9 10 20 10 11 0 20
-4 20 -10z m-55 -40 c3 -5 16 -10 28 -10 19 0 20 -2 7 -15 -20 -19 -60 -9 -60
16 0 20 15 26 25 9z m61 -55 c1 -14 -2 -25 -7 -25 -10 0 -12 33 -2 43 3 4 7 7
7 7 1 0 2 -11 2 -25z m2614 -155 c0 -5 -4 -10 -10 -10 -5 0 -10 5 -10 10 0 6
5 10 10 10 6 0 10 -4 10 -10z m-2097 -22 c15 1 27 -3 27 -9 0 -6 9 -7 21 -4
14 5 19 3 15 -3 -9 -15 -80 -25 -126 -17 -36 6 -38 8 -27 26 9 15 18 18 37 13
14 -4 37 -7 53 -6z m1987 2 c12 -8 11 -10 -7 -10 -13 0 -23 5 -23 10 0 13 11
13 30 0z m-5393 -6 c-3 -3 -12 -4 -19 -1 -8 3 -5 6 6 6 11 1 17 -2 13 -5z
m-450 -40 c-3 -3 -12 -4 -19 -1 -8 3 -5 6 6 6 11 1 17 -2 13 -5z m123 -24 c11
-7 7 -10 -17 -10 -17 0 -35 5 -38 10 -8 13 35 13 55 0z m3900 0 c0 -5 -4 -10
-10 -10 -5 0 -10 5 -10 10 0 6 5 10 10 10 6 0 10 -4 10 -10z m95 0 c23 -10 23
-10 -26 -16 -25 -3 -40 1 -49 11 -11 13 -8 15 21 14 19 0 43 -4 54 -9z m-4015
-314 c0 -18 -17 -29 -30 -21 -8 5 -7 11 1 21 15 18 29 18 29 0z m-133 -102
c12 -25 12 -27 0 -11 -17 20 -34 22 -40 5 -3 -10 -7 -10 -20 1 -10 7 -17 10
-17 6 0 -4 -7 -1 -16 6 -15 12 -14 14 7 20 45 11 71 3 86 -27z m-15 -86 c-13
-13 -55 -13 -59 0 -3 6 2 12 11 12 9 0 16 5 16 10 0 6 8 5 20 -2 11 -7 16 -16
12 -20z m5458 12 c0 -5 -9 -10 -21 -10 -11 0 -17 5 -14 10 3 6 13 10 21 10 8
0 14 -4 14 -10z m-6225 -130 c4 -6 -5 -10 -19 -10 -14 0 -26 5 -26 10 0 6 9
10 19 10 11 0 23 -4 26 -10z m-258 -6 c-3 -3 -12 -4 -19 -1 -8 3 -5 6 6 6 11
1 17 -2 13 -5z m178 -4 c-3 -5 -10 -10 -16 -10 -5 0 -9 5 -9 10 0 6 7 10 16
10 8 0 12 -4 9 -10z m255 0 c0 -12 -36 -12 -100 -1 -43 8 -41 9 28 10 42 0 72
-3 72 -9z m60 0 c0 -13 -11 -13 -30 0 -12 8 -11 10 8 10 12 0 22 -4 22 -10z
m75 0 c3 -5 -1 -10 -10 -10 -9 0 -13 5 -10 10 3 6 8 10 10 10 2 0 7 -4 10 -10z
m371 -87 c-7 -7 -26 7 -26 19 0 6 6 6 15 -2 9 -7 13 -15 11 -17z m-509 -8 c0
-11 -11 -15 -38 -15 -20 0 -45 -3 -55 -7 -12 -4 -15 -2 -12 8 3 8 18 14 36 14
18 0 32 3 32 7 0 5 8 8 18 8 10 0 19 -7 19 -15z m63 -9 c0 -15 -37 -32 -47
-22 -9 8 17 36 33 36 8 0 14 -6 14 -14z m-145 -105 c-3 -6 -11 -11 -16 -11 -5
0 -4 6 3 14 14 16 24 13 13 -3z m-75 -12 c0 -5 -7 -9 -15 -9 -15 0 -20 12 -9
23 8 8 24 -1 24 -14z m150 5 c0 -2 -7 -4 -15 -4 -8 0 -15 4 -15 10 0 5 7 7 15
4 8 -4 15 -8 15 -10z m6380 -44 c0 -5 -2 -10 -4 -10 -3 0 -8 5 -11 10 -3 6 -1
10 4 10 6 0 11 -4 11 -10z m-6177 -29 c45 -19 50 -35 10 -30 -5 1 -7 5 -5 10
3 12 -5 11 -29 -2 -12 -6 -18 -17 -15 -25 7 -18 -35 -19 -52 -2 -10 10 -15 10
-21 -1 -6 -9 -11 -10 -15 -2 -4 6 -16 11 -27 11 -10 0 -19 4 -19 10 0 13 34
30 60 30 12 0 19 4 16 9 -4 5 0 12 6 14 15 6 39 0 91 -22z m-209 -43 c-6 -9
-44 -11 -44 -2 0 4 8 13 17 20 18 13 38 0 27 -18z m6346 -35 c42 4 50 2 46
-10 -3 -8 -6 -19 -6 -24 0 -6 -4 -8 -9 -5 -4 3 -38 8 -75 10 -69 5 -86 10 -86
27 0 6 4 7 10 4 5 -3 18 -2 27 4 12 6 22 6 30 -1 7 -5 35 -8 63 -5z m92 -95
c-7 -7 -12 -8 -12 -2 0 14 12 26 19 19 2 -3 -1 -11 -7 -17z"/>
<path d="M3530 4220 c0 -5 5 -10 11 -10 5 0 7 5 4 10 -3 6 -8 10 -11 10 -2 0
-4 -4 -4 -10z"/>
<path d="M1712 8555 c10 -23 13 -24 21 -9 6 11 5 19 -4 25 -24 15 -29 10 -17
-16z"/>
<path d="M1820 8480 c0 -5 11 -10 25 -10 14 0 25 5 25 10 0 6 -11 10 -25 10
-14 0 -25 -4 -25 -10z"/>
<path d="M1709 8441 c-23 -20 -23 -20 -2 -14 12 3 24 11 27 19 7 19 3 18 -25
-5z"/>
<path d="M1855 8430 c3 -5 8 -10 11 -10 2 0 4 5 4 10 0 6 -5 10 -11 10 -5 0
-7 -4 -4 -10z"/>
<path d="M1630 8369 c0 -5 5 -7 10 -4 6 3 10 8 10 11 0 2 -4 4 -10 4 -5 0 -10
-5 -10 -11z"/>
<path d="M1595 8316 c-4 -32 -5 -83 -2 -112 5 -47 3 -54 -11 -52 -11 2 -17 -5
-19 -22 -2 -28 -3 -310 -2 -410 2 -136 1 -150 -15 -150 -9 0 -13 -8 -11 -22 3
-31 26 -78 37 -78 5 0 6 5 3 10 -4 6 -1 18 6 26 6 8 9 17 6 21 -4 3 -2 12 4
20 7 7 9 28 6 47 -6 39 10 60 37 50 9 -3 16 -3 16 0 0 10 -51 56 -61 56 -13 0
-11 28 3 53 13 24 14 59 4 97 -4 14 -2 47 3 75 6 33 6 54 -1 62 -7 9 -4 18 12
31 19 15 20 21 9 44 -9 22 -9 31 1 43 7 8 10 21 7 30 -4 8 -2 17 2 20 5 3 7
22 4 44 -3 23 -1 41 6 45 8 5 5 16 -9 37 -12 16 -19 37 -16 46 3 10 2 24 -3
32 -6 10 -11 -4 -16 -43z"/>
<path d="M2066 7641 c-4 -5 -2 -12 3 -15 5 -4 12 -2 15 3 4 5 2 12 -3 15 -5 4
-12 2 -15 -3z"/>
<path d="M2225 7500 c-3 -5 1 -10 9 -10 9 0 16 -7 16 -17 0 -15 2 -15 19 1 11
10 22 13 25 8 3 -6 0 -12 -6 -15 -7 -2 -10 -8 -6 -12 5 -5 16 -1 26 8 10 10
24 17 30 17 6 0 14 5 18 11 5 8 -3 10 -25 7 -17 -2 -31 -1 -31 4 0 13 -28 9
-33 -4 -3 -10 -7 -10 -19 0 -11 9 -18 10 -23 2z"/>
<path d="M8067 7474 c3 -7 1 -14 -5 -14 -6 0 -12 6 -15 13 -3 9 -7 9 -20 -2
-20 -16 -23 -35 -4 -28 17 6 47 -11 47 -27 0 -16 34 -48 43 -40 9 9 -4 34 -18
34 -17 0 -25 23 -14 41 6 10 9 10 9 2 0 -7 7 -13 15 -13 30 0 11 29 -27 43
-12 4 -15 2 -11 -9z"/>
<path d="M8130 7433 c0 -7 5 -13 12 -13 6 0 9 -3 6 -6 -3 -3 6 -17 20 -31 24
-24 26 -25 39 -7 16 21 17 34 3 34 -5 0 -9 3 -9 8 4 23 -4 30 -36 29 -22 -1
-35 -6 -35 -14z m63 -22 c3 -14 1 -18 -9 -14 -8 3 -14 11 -14 19 0 21 17 17
23 -5z"/>
<path d="M2225 7419 c-4 -6 -5 -13 -2 -16 7 -7 27 6 27 18 0 12 -17 12 -25 -2z"/>
<path d="M2297 7422 c-10 -2 -16 -9 -14 -15 4 -15 67 -22 67 -8 0 14 -31 28
-53 23z"/>
<path d="M1544 7392 c20 -40 31 -102 17 -102 -6 0 -11 -9 -11 -21 0 -16 -4
-19 -22 -13 l-21 6 21 -36 c26 -43 26 -46 10 -46 -10 0 -13 -25 -13 -93 0 -50
-4 -95 -9 -98 -4 -4 -2 -24 5 -45 15 -43 13 -125 -3 -135 -7 -4 -6 -14 1 -27
6 -11 11 -36 11 -54 0 -18 9 -51 19 -73 17 -39 28 -93 36 -175 2 -21 8 -48 14
-59 16 -28 14 -41 -5 -34 -13 5 -12 -1 5 -35 12 -23 21 -55 21 -72 0 -17 5
-41 11 -53 7 -12 12 -35 11 -51 0 -17 4 -36 10 -43 7 -9 7 -17 1 -25 -17 -22
-9 -135 10 -156 10 -11 19 -29 22 -40 2 -11 8 -30 14 -41 15 -27 14 -41 -4
-41 -13 0 -14 -10 -9 -57 4 -32 8 -60 10 -62 2 -2 -1 -10 -6 -16 -7 -8 -6 -25
3 -51 8 -21 12 -44 10 -51 -2 -6 5 -30 17 -53 21 -41 21 -42 1 -35 -18 5 -19
3 -10 -27 12 -43 11 -50 -3 -43 -7 4 -1 -5 15 -19 26 -24 38 -54 16 -40 -6 3
-4 -8 5 -24 21 -40 20 -45 -5 -37 -20 7 -20 4 7 -34 31 -44 50 -53 41 -21 -3
11 -1 22 4 25 4 3 6 12 3 19 -3 7 2 16 10 19 9 4 12 14 9 25 -2 11 0 23 6 26
19 12 12 43 -11 50 l-23 6 23 18 c21 16 21 19 6 40 -9 13 -13 29 -11 36 3 8 1
18 -5 24 -6 6 -12 23 -14 37 -1 14 -6 35 -9 46 -6 19 -4 21 16 16 13 -4 30 -7
37 -7 8 0 12 -6 9 -12 -2 -7 2 -20 10 -29 8 -9 15 -28 17 -41 3 -27 34 -68 53
-68 15 0 29 43 15 48 -6 2 -8 20 -4 44 4 30 2 39 -7 34 -11 -7 -52 14 -80 41
-7 8 -21 11 -32 8 -14 -5 -23 4 -41 37 -12 24 -23 51 -24 62 -1 10 -7 22 -15
27 -11 6 -9 13 10 33 17 18 21 30 15 48 -10 29 -10 47 0 77 5 15 2 43 -7 75
-32 104 -39 134 -41 164 -1 17 -7 37 -14 44 -6 6 -12 26 -12 44 0 19 -6 34
-15 38 -9 3 -15 18 -15 38 -1 18 -9 67 -19 109 -10 42 -17 103 -16 137 1 43
-2 63 -12 66 -7 3 -13 19 -13 36 0 16 -5 30 -11 30 -7 0 -9 10 -7 25 3 14 1
28 -3 31 -15 9 -10 24 7 24 12 0 14 5 9 18 -14 32 -17 60 -8 65 5 4 7 29 3 59
-6 42 -3 60 11 85 13 24 16 39 10 56 -5 13 -7 35 -4 49 3 14 0 29 -6 32 -6 4
-11 2 -11 -3 0 -6 -8 -11 -17 -11 -13 0 -11 6 12 30 27 28 29 39 23 108 0 9
-6 21 -12 25 -8 6 -7 10 1 14 9 3 10 10 3 24 -6 10 -8 19 -5 19 3 0 1 9 -5 20
-6 11 -20 20 -31 20 -18 0 -19 -2 -5 -28z m241 -2020 c0 -18 -20 -15 -23 4 -3
10 1 15 10 12 7 -3 13 -10 13 -16z"/>
<path d="M7996 7381 c-9 -14 4 -41 20 -41 8 0 11 6 8 15 -4 10 0 15 12 16 18
0 17 1 -1 9 -27 12 -33 12 -39 1z"/>
<path d="M8155 7340 c-3 -5 -1 -10 4 -10 6 0 11 5 11 10 0 6 -2 10 -4 10 -3 0
-8 -4 -11 -10z"/>
<path d="M8740 7340 c0 -5 5 -10 10 -10 6 0 10 5 10 10 0 6 -4 10 -10 10 -5 0
-10 -4 -10 -10z"/>
<path d="M7900 7280 c0 -5 9 -10 21 -10 11 0 17 5 14 10 -3 6 -13 10 -21 10
-8 0 -14 -4 -14 -10z"/>
<path d="M2375 7260 c-3 -5 1 -10 10 -10 9 0 13 5 10 10 -3 6 -8 10 -10 10 -2
0 -7 -4 -10 -10z"/>
<path d="M2468 7183 c7 -3 16 -2 19 1 4 3 -2 6 -13 5 -11 0 -14 -3 -6 -6z"/>
<path d="M7965 7100 c-3 -5 -1 -10 4 -10 6 0 11 5 11 10 0 6 -2 10 -4 10 -3 0
-8 -4 -11 -10z"/>
<path d="M8080 7100 c-8 -5 -11 -12 -8 -16 10 -9 38 3 38 16 0 12 -10 13 -30
0z"/>
<path d="M7915 7070 c3 -5 8 -10 11 -10 2 0 4 5 4 10 0 6 -5 10 -11 10 -5 0
-7 -4 -4 -10z"/>
<path d="M2527 7053 c-4 -3 -7 -11 -7 -17 0 -6 5 -5 12 2 6 6 9 14 7 17 -3 3
-9 2 -12 -2z"/>
<path d="M7990 7051 c0 -17 18 -21 24 -6 3 9 0 15 -9 15 -8 0 -15 -4 -15 -9z"/>
<path d="M2430 7040 c0 -5 5 -10 10 -10 6 0 10 5 10 10 0 6 -4 10 -10 10 -5 0
-10 -4 -10 -10z"/>
<path d="M7854 7025 c11 -8 24 -15 30 -15 5 0 1 7 -10 15 -10 8 -23 14 -29 14
-5 0 -1 -6 9 -14z"/>
<path d="M8147 7033 c-13 -13 -7 -21 13 -16 14 4 20 0 20 -11 0 -19 37 -16 50
4 4 7 13 9 19 6 6 -4 16 -4 22 0 8 4 7 9 -2 15 -19 12 -59 11 -59 -1 0 -5 -7
-10 -15 -10 -8 0 -15 5 -15 10 0 11 -23 14 -33 3z"/>
<path d="M7995 7010 c-3 -5 -1 -10 4 -10 6 0 11 5 11 10 0 6 -2 10 -4 10 -3 0
-8 -4 -11 -10z"/>
<path d="M8052 6989 c2 -7 10 -15 17 -17 8 -3 12 1 9 9 -2 7 -10 15 -17 17 -8
3 -12 -1 -9 -9z"/>
<path d="M8300 6992 c0 -5 7 -15 15 -22 8 -7 15 -9 15 -6 0 4 -7 14 -15 22 -8
9 -15 11 -15 6z"/>
<path d="M1730 6969 c0 -11 5 -17 10 -14 6 3 10 13 10 21 0 8 -4 14 -10 14 -5
0 -10 -9 -10 -21z"/>
<path d="M1682 6905 c0 -16 2 -22 5 -12 2 9 2 23 0 30 -3 6 -5 -1 -5 -18z"/>
<path d="M1722 6878 c3 -7 13 -15 24 -17 16 -3 17 -1 5 13 -16 19 -34 21 -29
4z"/>
<path d="M7750 6835 c-10 -12 -10 -15 4 -15 9 0 16 7 16 15 0 8 -2 15 -4 15
-2 0 -9 -7 -16 -15z"/>
<path d="M1664 6825 c-6 -15 2 -35 14 -35 4 0 16 7 27 16 17 13 18 16 5 24
-22 14 -40 12 -46 -5z"/>
<path d="M1710 6744 c0 -8 5 -12 10 -9 6 4 8 11 5 16 -9 14 -15 11 -15 -7z"/>
<path d="M1748 6695 c2 -14 11 -25 18 -25 17 0 17 10 0 33 -18 24 -24 21 -18
-8z"/>
<path d="M2847 6694 c-9 -10 2 -24 19 -24 8 0 14 7 14 15 0 15 -21 21 -33 9z"/>
<path d="M7610 6690 c0 -5 5 -10 10 -10 6 0 10 5 10 10 0 6 -4 10 -10 10 -5 0
-10 -4 -10 -10z"/>
<path d="M1713 6663 c-25 -5 -29 -13 -12 -30 8 -8 8 -17 0 -31 -7 -14 -8 -23
-1 -27 6 -3 13 1 16 9 3 9 12 16 20 16 8 0 14 4 14 9 0 5 9 7 20 4 31 -8 26
31 -5 45 -14 7 -27 11 -28 11 -1 -1 -12 -4 -24 -6z"/>
<path d="M2971 6601 c-10 -7 -8 -12 10 -25 27 -18 39 -20 39 -6 0 6 -6 10 -14
10 -8 0 -16 7 -18 15 -2 9 -8 12 -17 6z"/>
<path d="M1714 6567 c-3 -9 -3 -25 1 -34 6 -16 8 -15 16 6 6 16 6 28 0 34 -7
7 -12 5 -17 -6z"/>
<path d="M7405 6570 c3 -5 11 -10 16 -10 6 0 7 5 4 10 -3 6 -11 10 -16 10 -6
0 -7 -4 -4 -10z"/>
<path d="M7540 6530 c0 -5 5 -10 10 -10 6 0 10 5 10 10 0 6 -4 10 -10 10 -5 0
-10 -4 -10 -10z"/>
<path d="M2880 6520 c-8 -5 -11 -12 -7 -16 4 -4 13 -2 19 4 15 15 7 24 -12 12z"/>
<path d="M8097 6509 c7 -7 15 -10 18 -7 3 3 -2 9 -12 12 -14 6 -15 5 -6 -5z"/>
<path d="M1715 6500 c-3 -5 -2 -10 4 -10 5 0 13 5 16 10 3 6 2 10 -4 10 -5 0
-13 -4 -16 -10z"/>
<path d="M1740 6460 c0 -5 5 -10 11 -10 5 0 7 5 4 10 -3 6 -8 10 -11 10 -2 0
-4 -4 -4 -10z"/>
<path d="M7430 6450 c-9 -17 -8 -20 9 -20 14 0 18 5 14 20 -3 11 -7 20 -9 20
-2 0 -8 -9 -14 -20z"/>
<path d="M1990 6415 c0 -9 6 -12 15 -9 8 4 15 10 15 15 0 5 -7 9 -15 9 -8 0
-15 -7 -15 -15z"/>
<path d="M2207 6410 c19 -22 29 -19 20 5 -4 8 -13 15 -22 15 -13 0 -12 -3 2
-20z"/>
<path d="M2078 6406 c-10 -7 -18 -18 -18 -24 0 -18 32 -23 49 -8 11 10 21 12
31 6 9 -6 17 -5 22 3 6 9 10 8 17 -3 6 -8 13 -11 18 -7 4 4 2 16 -3 25 -14 22
-92 27 -116 8z"/>
<path d="M8135 6392 c-7 -20 -1 -25 24 -17 26 8 27 21 2 28 -12 3 -22 -1 -26
-11z"/>
<path d="M1750 6380 c0 -5 5 -10 10 -10 6 0 10 5 10 10 0 6 -4 10 -10 10 -5 0
-10 -4 -10 -10z"/>
<path d="M2796 6365 c4 -8 10 -15 15 -15 5 0 9 7 9 15 0 8 -7 15 -15 15 -9 0
-12 -6 -9 -15z"/>
<path d="M8190 6369 c0 -5 5 -7 10 -4 6 3 10 8 10 11 0 2 -4 4 -10 4 -5 0 -10
-5 -10 -11z"/>
<path d="M8218 6356 c-29 -28 -21 -47 10 -27 8 5 12 17 10 26 -3 18 -4 18 -20
1z"/>
<path d="M8141 6334 c0 -11 3 -14 6 -6 3 7 2 16 -1 19 -3 4 -6 -2 -5 -13z"/>
<path d="M2860 6330 c0 -5 9 -10 20 -10 11 0 20 5 20 10 0 6 -9 10 -20 10 -11
0 -20 -4 -20 -10z"/>
<path d="M8305 6330 c-3 -5 -1 -10 4 -10 6 0 11 5 11 10 0 6 -2 10 -4 10 -3 0
-8 -4 -11 -10z"/>
<path d="M2210 6313 c0 -3 7 -15 17 -25 9 -11 11 -18 5 -18 -7 0 -12 -5 -12
-10 0 -9 24 -9 60 -1 3 1 -2 7 -11 14 -8 7 -18 20 -22 30 -6 16 -37 25 -37 10z"/>
<path d="M2290 6306 c0 -9 5 -16 10 -16 6 0 10 4 10 9 0 6 -4 13 -10 16 -5 3
-10 -1 -10 -9z"/>
<path d="M2516 6241 c-3 -5 0 -11 8 -14 15 -6 26 1 26 15 0 11 -27 10 -34 -1z"/>
<path d="M7545 6240 c3 -5 8 -10 11 -10 2 0 4 5 4 10 0 6 -5 10 -11 10 -5 0
-7 -4 -4 -10z"/>
<path d="M1818 6213 c7 -3 16 -2 19 1 4 3 -2 6 -13 5 -11 0 -14 -3 -6 -6z"/>
<path d="M4400 6171 c0 -5 5 -13 10 -16 6 -3 10 -2 10 4 0 5 -4 13 -10 16 -5
3 -10 2 -10 -4z"/>
<path d="M7702 6166 c1 -10 8 -17 13 -17 15 1 12 24 -3 29 -9 3 -13 -2 -10
-12z"/>
<path d="M7737 6130 c-4 -17 -2 -18 14 -9 22 11 25 29 5 29 -7 0 -16 -9 -19
-20z"/>
<path d="M7611 6124 c-15 -12 -15 -13 2 -19 9 -4 29 -5 42 -2 14 2 28 0 31 -4
7 -12 24 -11 24 1 0 6 -6 10 -14 10 -8 0 -16 6 -19 14 -7 17 -42 17 -66 0z"/>
<path d="M2080 6079 c0 -5 5 -7 10 -4 6 3 10 8 10 11 0 2 -4 4 -10 4 -5 0 -10
-5 -10 -11z"/>
<path d="M7590 6060 c0 -5 7 -10 16 -10 8 0 12 5 9 10 -3 6 -10 10 -16 10 -5
0 -9 -4 -9 -10z"/>
<path d="M8462 6048 c3 -7 15 -14 29 -16 23 -2 23 -2 5 13 -24 18 -39 20 -34
3z"/>
<path d="M4503 6043 c-7 -2 -13 -16 -13 -30 0 -34 25 -24 26 10 1 15 1 27 0
26 -1 0 -7 -3 -13 -6z"/>
<path d="M1850 5980 c0 -5 5 -10 10 -10 6 0 10 5 10 10 0 6 -4 10 -10 10 -5 0
-10 -4 -10 -10z"/>
<path d="M4087 5944 c-5 -29 4 -31 20 -5 10 15 9 20 -1 24 -9 4 -16 -3 -19
-19z"/>
<path d="M8455 5910 c-3 -5 1 -10 10 -10 9 0 13 5 10 10 -3 6 -8 10 -10 10 -2
0 -7 -4 -10 -10z"/>
<path d="M8570 5845 c0 -9 5 -15 11 -13 6 2 11 8 11 13 0 5 -5 11 -11 13 -6 2
-11 -4 -11 -13z"/>
<path d="M8485 5810 c3 -5 8 -10 11 -10 2 0 4 5 4 10 0 6 -5 10 -11 10 -5 0
-7 -4 -4 -10z"/>
<path d="M8441 5780 c-9 -5 -11 -15 -6 -26 6 -17 8 -17 16 5 11 28 9 33 -10
21z"/>
<path d="M4096 5765 c4 -8 8 -15 10 -15 2 0 4 7 4 15 0 8 -4 15 -10 15 -5 0
-7 -7 -4 -15z"/>
<path d="M2017 5741 c-17 -6 -18 -8 -3 -20 12 -10 23 -11 39 -4 21 10 21 10 2
20 -11 6 -28 7 -38 4z"/>
<path d="M8222 5608 c5 -32 28 -35 28 -4 0 17 -5 26 -16 26 -10 0 -14 -7 -12
-22z"/>
<path d="M1940 5589 c0 -14 5 -19 15 -16 8 4 17 2 20 -3 9 -15 37 -12 32 3 -2
6 -12 11 -21 9 -9 -2 -19 4 -22 13 -9 22 -24 18 -24 -6z"/>
<path d="M8420 5584 c-14 -37 -13 -41 14 -41 28 0 37 15 29 46 -7 29 -31 26
-43 -5z"/>
<path d="M8190 5580 c0 -5 7 -10 16 -10 8 0 12 5 9 10 -3 6 -10 10 -16 10 -5
0 -9 -4 -9 -10z"/>
<path d="M4020 5565 c0 -8 7 -15 16 -15 14 0 14 3 4 15 -7 8 -14 15 -16 15 -2
0 -4 -7 -4 -15z"/>
<path d="M8161 5539 c-10 -18 -15 -19 -22 -8 -8 12 -10 12 -19 -1 -5 -8 -5
-19 -1 -23 12 -12 71 20 71 38 0 21 -13 18 -29 -6z"/>
<path d="M8448 5448 c-28 -35 -32 -75 -10 -103 20 -26 32 -24 32 6 0 10 8 25
17 35 24 24 44 64 37 75 -10 17 -59 9 -76 -13z"/>
<path d="M3700 5326 c0 -26 12 -46 28 -46 12 0 13 3 4 12 -7 7 -12 20 -12 30
0 10 -4 18 -10 18 -5 0 -10 -6 -10 -14z"/>
<path d="M1978 5233 c7 -3 16 -2 19 1 4 3 -2 6 -13 5 -11 0 -14 -3 -6 -6z"/>
<path d="M1701 5078 c11 -60 19 -78 35 -78 20 0 17 17 -3 29 -16 9 -15 13 12
35 l30 25 -37 15 c-21 9 -39 16 -41 16 -3 0 -1 -19 4 -42z"/>
<path d="M2046 4903 c-12 -12 -6 -33 9 -33 8 0 15 6 15 14 0 17 -14 28 -24 19z"/>
<path d="M1738 4709 c16 -18 15 -29 -3 -29 -12 0 -14 -7 -9 -27 6 -23 5 -25
-12 -19 -14 5 -16 4 -8 -4 9 -9 17 -9 33 0 18 9 21 19 19 47 -2 22 -9 38 -18
41 -12 4 -13 2 -2 -9z"/>
<path d="M3730 4685 c0 -16 16 -20 24 -6 3 5 -1 11 -9 15 -9 3 -15 0 -15 -9z"/>
<path d="M1685 4590 c-4 -6 1 -17 11 -25 25 -18 30 -11 11 15 -10 14 -17 18
-22 10z"/>
<path d="M1925 4510 c3 -5 10 -10 16 -10 5 0 9 5 9 10 0 6 -7 10 -16 10 -8 0
-12 -4 -9 -10z"/>
<path d="M1708 4258 c9 -9 15 -9 24 0 9 9 7 12 -12 12 -19 0 -21 -3 -12 -12z"/>
<path d="M1485 4010 c3 -5 8 -10 11 -10 2 0 4 5 4 10 0 6 -5 10 -11 10 -5 0
-7 -4 -4 -10z"/>
<path d="M5325 3880 c-3 -5 -1 -10 5 -10 6 0 16 -11 22 -25 11 -24 38 -35 38
-15 0 6 -4 10 -10 10 -5 0 -12 11 -16 25 -6 25 -28 33 -39 15z"/>
<path d="M4020 3789 c0 -5 5 -7 10 -4 6 3 10 8 10 11 0 2 -4 4 -10 4 -5 0 -10
-5 -10 -11z"/>
<path d="M1405 3779 c-10 -15 3 -25 16 -12 7 7 7 13 1 17 -6 3 -14 1 -17 -5z"/>
<path d="M4080 3718 c-22 -26 -32 -31 -73 -32 -28 -1 -47 -6 -47 -12 0 -6 -7
-17 -15 -24 -11 -9 -12 -16 -5 -25 8 -9 8 -15 0 -20 -6 -3 -8 -11 -5 -16 4 -5
15 -3 28 6 12 8 29 15 38 15 9 0 24 9 34 20 10 11 22 20 28 20 14 0 51 51 55
77 4 32 -8 29 -38 -9z"/>
<path d="M3966 3722 c-3 -6 -1 -14 5 -17 15 -10 25 3 12 16 -7 7 -13 7 -17 1z"/>
<path d="M7052 2854 c9 -10 24 -14 33 -10 23 9 9 26 -23 26 -24 0 -25 -1 -10
-16z"/>
<path d="M4586 2670 c-21 -13 -35 -16 -57 -10 -18 5 -27 5 -24 -1 4 -5 13 -9
21 -9 8 0 24 -9 36 -20 12 -10 25 -17 30 -14 4 3 11 -9 15 -26 5 -30 8 -31 38
-26 24 5 32 3 31 -6 0 -7 4 -13 9 -13 6 0 9 3 8 8 -2 4 6 7 17 7 32 0 24 33
-17 78 -46 49 -69 56 -107 32z"/>
<path d="M5151 2629 c-27 -24 -32 -35 -29 -66 l3 -37 62 -2 c58 -1 62 0 60 20
-1 11 3 21 10 21 18 0 53 33 53 50 0 20 -36 37 -86 41 -34 2 -47 -3 -73 -27z"/>
<path d="M5335 2611 c-6 -11 9 -23 19 -14 9 9 7 23 -3 23 -6 0 -12 -4 -16 -9z"/>
<path d="M2635 2480 c3 -5 10 -10 16 -10 5 0 9 5 9 10 0 6 -7 10 -16 10 -8 0
-12 -4 -9 -10z"/>
<path d="M2275 2292 c-2 -3 -15 -6 -27 -7 -13 -2 -46 -6 -74 -10 -35 -5 -54
-4 -59 4 -5 9 -10 9 -20 1 -8 -6 -36 -12 -64 -13 -28 -1 -51 -5 -51 -8 0 -3
-27 -13 -60 -23 -33 -10 -60 -22 -60 -26 0 -12 43 -20 55 -10 6 5 21 8 33 5
27 -5 204 32 212 45 3 5 38 10 78 11 50 1 80 7 93 18 19 15 19 16 -16 17 -19
0 -37 -2 -40 -4z"/>
<path d="M7260 2281 c-16 -4 -25 -15 -26 -28 -1 -25 22 -38 40 -24 7 6 17 6
26 1 8 -6 30 -10 48 -10 17 0 32 -5 32 -11 0 -6 7 -8 16 -5 9 4 22 2 28 -2 16
-13 66 -21 66 -11 0 5 -5 9 -12 9 -6 0 -9 3 -6 6 4 3 27 -6 53 -21 27 -14 55
-23 65 -20 10 3 21 1 25 -5 3 -6 10 -8 15 -5 5 3 29 -2 53 -10 25 -8 52 -12
61 -9 10 4 16 1 16 -8 0 -9 13 -14 38 -14 21 -1 49 -7 63 -15 13 -7 27 -12 31
-11 4 1 25 -5 45 -13 21 -8 47 -16 58 -18 11 -1 26 -6 33 -10 12 -8 13 -4 16
43 1 16 36 28 36 12 0 -5 11 -13 24 -16 29 -7 100 20 90 35 -3 6 -12 8 -19 5
-7 -2 -23 5 -36 17 -15 14 -18 22 -10 25 8 3 17 -2 22 -9 7 -11 9 -10 9 4 0 9
4 17 9 17 23 0 41 -14 41 -32 0 -16 5 -19 23 -14 12 3 26 6 31 6 4 0 6 7 2 15
-4 11 2 15 22 16 51 0 117 11 126 20 6 5 -3 9 -20 9 -69 0 -140 6 -151 13 -6
4 -23 3 -38 -3 -18 -7 -31 -7 -39 -1 -7 6 -66 13 -132 15 -147 7 -201 11 -236
21 -20 5 -28 3 -28 -5 0 -9 -4 -9 -13 -2 -19 16 -122 28 -113 13 7 -11 -4 -15
-35 -12 -9 1 -19 -5 -22 -14 -4 -8 -12 -15 -18 -15 -8 0 -7 6 3 18 31 35 33
46 8 39 -13 -3 -29 -2 -34 3 -14 11 -253 21 -286 11z m766 -120 c18 -12 17
-12 -3 -8 -13 3 -23 1 -23 -5 0 -6 -7 -7 -17 -3 -10 4 -29 9 -43 10 -40 4 -42
4 -35 16 9 13 95 6 121 -10z m84 9 c0 -5 -4 -10 -10 -10 -5 0 -10 5 -10 10 0
6 5 10 10 10 6 0 10 -4 10 -10z"/>
<path d="M7175 2260 c3 -5 11 -10 16 -10 6 0 7 5 4 10 -3 6 -11 10 -16 10 -6
0 -7 -4 -4 -10z"/>
<path d="M1730 2240 c0 -13 50 -13 70 0 11 7 4 10 -27 10 -24 0 -43 -4 -43
-10z"/>
<path d="M1835 2220 c-3 -5 -1 -10 4 -10 6 0 11 5 11 10 0 6 -2 10 -4 10 -3 0
-8 -4 -11 -10z"/>
<path d="M2217 2224 c-3 -3 -45 -12 -94 -19 -121 -18 -193 -37 -193 -52 0 -7
-3 -12 -7 -12 -26 4 -23 -4 7 -18 33 -15 62 -22 103 -24 9 0 17 -4 17 -10 0
-5 11 -9 25 -9 14 0 25 -5 25 -12 0 -9 3 -9 12 0 7 7 23 12 36 12 30 0 122 30
122 40 0 4 17 11 37 15 52 9 59 26 20 43 -29 12 -30 15 -15 26 10 7 15 16 11
19 -8 9 -98 9 -106 1z m73 -39 c0 -8 -4 -15 -9 -15 -5 0 -14 7 -21 15 -10 13
-9 15 9 15 12 0 21 -6 21 -15z"/>
<path d="M1866 2152 c-3 -6 -1 -14 5 -17 15 -10 25 3 12 16 -7 7 -13 7 -17 1z"/>
<path d="M7468 2118 c9 -9 15 -9 24 0 9 9 7 12 -12 12 -19 0 -21 -3 -12 -12z"/>
<path d="M7585 2083 c-42 -9 -48 -13 -37 -26 5 -6 8 -23 6 -35 -3 -16 0 -22 8
-19 7 2 12 14 10 26 -1 17 2 21 15 17 10 -2 28 -7 41 -11 12 -3 22 -11 22 -16
0 -6 5 -7 11 -3 7 4 10 1 7 -7 -3 -8 -16 -13 -32 -11 -14 1 -26 -2 -26 -8 0
-6 4 -9 9 -5 5 3 12 1 16 -5 3 -5 14 -10 23 -10 9 0 28 -9 42 -20 30 -24 40
-25 40 -5 0 8 5 15 10 15 6 0 10 -7 10 -15 0 -15 7 -18 50 -16 14 0 38 -5 55
-12 34 -15 109 -1 101 19 -3 7 2 18 10 24 22 19 17 28 -18 39 -18 5 -62 20
-99 34 -36 13 -81 24 -100 24 -18 0 -42 4 -51 8 -9 4 -22 4 -28 0 -5 -3 -20 1
-32 9 -23 16 -28 17 -63 9z m125 -82 c0 -6 -4 -13 -10 -16 -5 -3 -10 1 -10 9
0 9 5 16 10 16 6 0 10 -4 10 -9z"/>
<path d="M7480 2065 c0 -8 5 -15 10 -15 6 0 10 7 10 15 0 8 -4 15 -10 15 -5 0
-10 -7 -10 -15z"/>
<path d="M8061 2063 c0 -4 4 -16 8 -26 6 -17 8 -17 20 -4 10 13 9 17 -8 27
-12 6 -21 7 -20 3z"/>
<path d="M7504 2015 c11 -8 22 -12 25 -9 6 6 -19 24 -34 24 -5 -1 -1 -7 9 -15z"/>
<path d="M2213 1991 c-11 -17 -9 -20 17 -26 43 -9 58 4 29 26 -30 23 -32 23
-46 0z"/>
<path d="M7500 1980 c0 -5 5 -10 10 -10 6 0 10 5 10 10 0 6 -4 10 -10 10 -5 0
-10 -4 -10 -10z"/>
<path d="M4900 1877 c0 -13 5 -28 12 -35 9 -9 9 -18 -1 -38 -12 -26 -11 -27
20 -20 17 3 38 6 45 6 8 0 14 5 14 10 0 6 -8 10 -17 10 -10 0 -25 4 -33 10
-12 7 -12 12 4 29 17 19 17 21 2 21 -9 0 -19 7 -22 15 -9 23 -24 18 -24 -8z"/>
<path d="M7573 1873 c-18 -6 -16 -23 1 -23 17 0 30 16 19 23 -5 2 -14 2 -20 0z"/>
<path d="M4850 1855 c0 -10 -11 -15 -35 -15 -26 0 -33 -3 -29 -15 4 -8 11 -12
16 -9 6 4 5 -3 -1 -15 -7 -11 -16 -21 -20 -21 -5 0 -11 -9 -14 -20 -3 -11 -11
-19 -17 -18 -7 2 -15 -3 -17 -10 -4 -10 3 -13 23 -10 23 2 29 7 27 26 -2 16 2
22 17 22 11 0 20 6 20 14 0 19 25 27 39 13 18 -18 29 5 19 41 -9 32 -28 44
-28 17z"/>
<path d="M5036 1851 c-4 -6 -18 -11 -32 -11 -13 0 -24 -4 -24 -10 0 -5 7 -10
15 -10 8 0 15 -7 15 -16 0 -11 6 -14 20 -9 12 4 27 2 34 -4 10 -9 15 -7 20 6
8 20 -38 72 -48 54z"/>
<path d="M7734 1846 c11 -9 27 -16 35 -16 21 0 2 16 -29 24 -24 7 -24 6 -6 -8z"/>
<path d="M4805 1749 c-4 -6 -5 -13 -2 -16 7 -7 27 6 27 18 0 12 -17 12 -25 -2z"/>
<path d="M4465 1570 c-3 -5 -1 -10 4 -10 6 0 11 5 11 10 0 6 -2 10 -4 10 -3 0
-8 -4 -11 -10z"/>
<path d="M4320 1511 c0 -5 5 -13 10 -16 6 -3 10 -2 10 4 0 5 -4 13 -10 16 -5
3 -10 2 -10 -4z"/>
</g>
</svg>
